<?xml version="1.0" encoding="utf-8"?>
<!-- Generator: Adobe Illustrator 19.2.1, SVG Export Plug-In . SVG Version: 6.00 Build 0)  -->
<svg version="1.1" id="Layer_1" xmlns="http://www.w3.org/2000/svg" xmlns:xlink="http://www.w3.org/1999/xlink" x="0px" y="0px"
	 viewBox="0 0 24 24" style="enable-background:new 0 0 24 24;" xml:space="preserve">
<style type="text/css">
	.st0{fill:#383838;}
</style>
<path class="st0" d="M8,2.4c0.1,0,0.1,0,0.2,0.1c0.1,0.1,0.4,0.4,0.4,0.6c0,0.2,0,0.7,0.1,1.1C8.9,4.7,9.1,6,9.4,6.7
	c0.3,0.7,0.4,1.1,0.1,1.5c-0.3,0.5-2.2,2.4-2.2,2.4s0.5,1,1.1,1.6c0.5,0.7,1.3,1.7,2.3,2.5c1,0.9,2.1,1.7,3.2,2.2
	c1.1-1.1,2-2,2.3-2.2c0.3-0.2,0.3-0.3,0.8-0.1s1.2,0.5,2,0.6c0.7,0.1,1.5,0.2,2,0.3s0.5,0.1,0.6,0.3c0.2,0.2,0.3,0.5,0.3,0.6
	c0,0.1,0,0.4,0,1.4s0,2.4,0,2.7c0,0.3,0,0.3-0.1,0.5s-0.2,0.7-0.2,0.7c0,0.1-0.5,0.3-0.8,0.3s-1.4,0-2.1-0.1s-2.6-0.5-3.3-0.8
	c-0.7-0.2-3-1-5.8-3.1C7,16,5.1,13.3,4,11.1S2.3,6.5,2.2,5.3C2,4.1,2,3.6,2,3.3C2.1,3,2.4,2.7,2.6,2.6c0.2-0.1,0.5-0.2,0.8-0.2
	s1.1,0,2.2,0C6.7,2.4,8,2.4,8,2.4z"/>
</svg>
