<?xml version="1.0" encoding="utf-8"?>
<!-- Generator: Adobe Illustrator 19.2.0, SVG Export Plug-In . SVG Version: 6.00 Build 0)  -->
<svg version="1.1" id="Layer_1" xmlns="http://www.w3.org/2000/svg" xmlns:xlink="http://www.w3.org/1999/xlink" x="0px" y="0px"
	 viewBox="0 0 300 300" style="enable-background:new 0 0 300 300;" xml:space="preserve">
<style type="text/css">
	.st0{fill:#EA5867;}
</style>
<g>
	<g>
		<path class="st0" d="M264.3,199.5c-5.3-13.9-15.1-25.7-27.6-34c-9.2-5.9-19.4-9.6-30.2-10.9c-0.7-5.3-1.6-10.6-3.6-15.5
			c-3-7.6-7.6-14.5-13.5-20.1c-6.2-6.3-13.8-10.9-21.7-14.5c9.2-11.5,13.8-26.4,13.5-40.9c-0.3-10.6-3.3-20.8-8.5-30
			c-5.9-9.9-14.5-18.1-24.7-23.8c-8.2-4.6-18.1-6.9-27.6-7.3H117c-11.5,0.3-23,4-32.2,10.2c-11.5,7.6-20.7,19.5-25,32.7
			c-3.9,11.2-4.3,23.8-1.3,35.6c2.3,8.6,6.2,16.5,11.5,23.4c-7.6,3.3-14.5,7.6-20.4,13.2c-5.6,5-9.9,11.2-13.2,17.8
			c-3.6,7.6-5.6,16.2-5.6,24.7v18.1c0.3,10.2,3,20.5,8.9,28.7c5.6,7.6,13.2,13.5,21.4,17.8c9.2,4.6,19.4,7.3,29.6,8.9
			c12.2,2,24.7,2.3,37.2,2c1.6,10.6,5.3,20.8,11.2,29.7c6.9,10.6,16.8,19.1,27.9,24.7c9.2,4.6,19.4,6.9,29.6,7.3h3.6
			c9.2-0.3,18.4-2.3,26.6-5.9c14.5-6.3,26.6-17.8,34.2-32c4.9-9.9,7.9-20.8,8.2-31.7v-4C268.9,215.7,267.2,207.4,264.3,199.5z
			 M131.4,201.5c-2.3,6.3-3.6,12.5-4.3,19.1c-12.8,0.3-25.6,0-38.1-2.3c-8.9-1.6-17.4-4.3-25.3-8.9c-3.9-2.6-7.6-5.6-10.5-9.2
			c-3-4-5.3-8.6-6.2-13.2c-1.3-5.9-1-12.2-1-18.5c0-4.9,0-9.6,0.7-14.5c1-6.9,3.9-13.9,8.2-19.5c6.9-8.6,16.8-14.5,27-18.1
			c4.3,3,8.9,5.6,13.8,7.6c2.3,0.7,4.9,0.3,6.9-1c2.6-2,3.9-5.6,3-8.6c-0.7-2.3-2.3-4-4.6-5c-8.5-3.3-15.8-9.6-21-17.2
			c-4.9-6.9-7.9-15.5-8.2-24.1c-0.7-8.6,1.3-17.2,5.3-24.7c4.3-8.3,10.9-14.9,18.7-19.5s17.1-6.6,26.6-6.6
			c8.5,0.7,17.1,3.6,24.3,8.9c9.9,7.3,17.1,18.5,19.1,30.7c2,10.2,0,21.4-4.9,30.7c-5.3,9.9-14.1,17.8-24.3,21.8
			c-3.6,1.3-5.6,5.9-4.3,9.6c1.3,4,5.6,6.3,9.5,5c4.9-2,9.9-4.6,14.1-7.9c9.5,3.3,18.7,8.6,25.6,16.5c5.6,6.3,8.9,13.9,9.9,22.1
			c-10.5,1.3-20.7,4.6-29.9,10.2C147.5,173.4,137,186.3,131.4,201.5z M251.1,242.4c-2.3,8.6-6.9,16.5-12.8,22.8
			c-6.6,7.3-15.5,12.9-25,15.5c-10.9,3-22.7,2.6-33.5-1c-10.2-3.3-19.4-10.2-26-18.8c-5.3-6.9-8.9-14.5-10.5-22.8
			c-2-10.2-1.3-21.1,2.3-31c3.3-9.9,9.9-18.5,18.1-25.1c8.9-6.6,19.4-10.9,30.2-11.5c10.2-1,20.7,1,28.9,5.6
			c11.8,6.3,21.7,16.8,26.6,29.4C254.1,217.3,254.7,230.5,251.1,242.4z M233,201.8c-1.6-1.6-4.3-2-6.2-0.7c-0.7,0.7-1.6,1.7-2.6,3
			c-13.2,13.5-26.6,27.1-40.1,40.6c-6.2-6.6-12.8-12.9-19.1-19.5c-1.6-2-4.6-2-6.6-0.7c-2,1.3-2.6,4-2,5.9c0.7,1.3,1.6,2.3,2.6,3.3
			c6.9,6.6,13.5,13.5,20.4,20.5c0.7,1,1.6,2,3,2.3c2,0.7,4.3,0,5.6-1.7c14.8-15.2,29.9-30.4,45-45.5
			C235,207.4,235.3,203.8,233,201.8z"/>
	</g>
</g>
</svg>
