<?xml version="1.0" encoding="utf-8"?>
<!-- Generator: Adobe Illustrator 19.2.1, SVG Export Plug-In . SVG Version: 6.00 Build 0)  -->
<svg version="1.1" id="Layer_1" xmlns="http://www.w3.org/2000/svg" xmlns:xlink="http://www.w3.org/1999/xlink" x="0px" y="0px"
	 viewBox="0 0 50 50" style="enable-background:new 0 0 50 50;" xml:space="preserve">
<style type="text/css">
	.st0{display:none;}
	.st1{display:inline;}
	.st2{fill:#4B5B5C;}
	.st3{display:inline;fill:#4B5B5C;}
	.st4{fill:#FFFFFF;stroke:#4B5B5C;stroke-miterlimit:10;}
</style>
<g id="Layer_1_1_" class="st0">
	<g class="st1">
		<path class="st2" d="M8.3,20.8c-0.3,0-0.6-0.1-0.8-0.4l-3.9-4.5c-0.2-0.2-0.3-0.5-0.3-0.8s0.2-0.6,0.4-0.7L5.3,13
			c0.5-0.4,1.1-0.3,1.5,0.1l3.9,4.5c0.4,0.5,0.3,1.1-0.1,1.5L9,20.5C8.8,20.7,8.6,20.8,8.3,20.8z M6.1,13.8l-1.6,1.4l3.9,4.5l2-1.8
			L10,18.3L6.1,13.8z"/>
		<path class="st2" d="M11,19l-5.2-5.7l1.7,0.6c0,0,1.4,0.4,1.8-0.4c0.3-0.6,0.5-2.5,0.6-3.6V9.7L15.2,5c0.1-0.1,0.3-0.3,0.5-0.2
			c0.3,0,0.4,0.2,0.5,0.3l0.3,0.4c1.4-0.8,6.2-3.1,10.1,1.4l1.2,1.4l-1.7-0.5c0,0-3.6-1-6.5,1.2l0.7,0.8c0.2,0.2,0.5,0.6,0.5,1
			c0,0.2-0.1,0.4-0.3,0.5l-5.3,4.6H15c-1.2-0.1-2.7-0.2-3.2-0.1c-1,0.4-0.7,1.8-0.7,1.8V19H11z M8.5,15.1l1,1.2
			c0.2-0.6,0.7-1.3,1.5-1.6s3-0.1,3.8,0l4.7-4.1c0-0.1-0.1-0.1-0.1-0.1L18,8.8l0.4-0.4c2.1-1.8,4.6-2.1,6.2-2c-1.4-1-3-1.4-4.8-1.1
			s-3.1,1.2-3.1,1.2l-0.4,0.3l-0.7-0.9L10.9,10c-0.1,0.8-0.3,3-0.7,3.8C9.8,14.7,9.1,15,8.5,15.1z"/>
		<path class="st2" d="M19.5,18.6l-4.2-4.9l2.9-2.5l4.2,4.9L19.5,18.6z M16.8,13.8l2.8,3.3l1.2-1.1L18,12.7L16.8,13.8z"/>
		<path class="st2" d="M40.5,46.2L18.8,21c-0.5-0.6-0.6-1.3-0.4-2c0.2-0.6,0.6-1.3,1.1-1.7l2-1.8c0.6-0.5,1.2-0.7,1.8-0.7
			c0.6,0,1.2,0.4,1.7,0.9l21.7,25.2L40.5,46.2z M23.1,15.9c-0.3,0-0.6,0.1-0.9,0.4l-2,1.8c-0.4,0.3-0.7,0.8-0.8,1.2
			c-0.1,0.4,0,0.8,0.2,1.1l21,24.4l4.5-3.9l-21-24.4C23.8,16.1,23.5,15.9,23.1,15.9C23.2,15.9,23.1,15.9,23.1,15.9z"/>
	</g>
	<path class="st3" d="M24.6,30L20,25.1l5.8-5.1l4.2,4.7L24.6,30z M21.5,25.2l3.1,3.3l3.9-3.9l-2.8-3.1L21.5,25.2z"/>
	<g class="st1">
		<path class="st2" d="M11.6,46.2l-7.8-8.3l9.6-8.9l0.8,0.9l-0.5,0.4l4.9,4.3l0.3,0.3v-0.1l1.1,1.1l0.6,1.1L11.6,46.2z M5.3,37.9
			l6.3,6.7l7.6-7.7l-1.4-1.5L12.9,31L5.3,37.9z"/>
		<path class="st2" d="M20,37.3l-2.1-1.9l-5.2-5.6l9.1-8.6L27,27v2.7l-1.6-0.3v2.5H23v2.8l-3-0.5V37.3z M14.2,29.9l4.5,4.8l0.3,0.2
			V33l2,0.5V31h3.3v-2.6l1.7,0.3v-1.2l-4.2-4.7L14.2,29.9z"/>
		<path class="st2" d="M32,23.8l-5.9-6.5L40.3,3.8l5.9,6.1L43.3,10l-0.4,3h-2.4l-0.1,2L38,14.7v2l-2,0.6v2.2l-1.6,0.3L34.2,23h-2
			L32,23.8z M31.7,22h1.5l0.2-3.2l1.6-0.3v-2l2-0.6v-2.3l2.3-0.2V11H42l0.4-2.5l1.2,0.1l-3.3-3.3L27.6,17.4L31.7,22z"/>
	</g>
</g>
<g id="Layer_2" class="st0">
	<g class="st1">
		<g>
			<path class="st2" d="M13,15.6c-0.4,0-1-0.3-1-0.7V4.3c0-0.1,0-0.1,0-0.2c0,0,0.1-1.1,0-1.1h-0.5l0,0C9.7,3,9.3,3.7,9.2,3.8v10.8
				c0,0.4-0.2,0.8-0.6,0.8c-0.4,0-0.6-0.2-0.6-0.5V4.4C8,4,8.1,2.8,9.5,2.5C10.2,2.4,10.9,2,11.4,2H12c0.7,0,1.3,0.4,1.6,0.7
				C13.8,3,14,3.7,14,4.3v10.6C14,15.2,13.4,15.6,13,15.6z"/>
			<path class="st2" d="M25.5,15.6c-0.4,0-0.5-0.3-0.5-0.7V4.3c0-0.1,0-0.1,0-0.2c-1,0-0.3-1.1-0.4-1.1h-0.5l0,0
				c-1.7,0-2.2,0.7-2.3,0.8v10.8c0,0.4-0.5,0.8-0.9,0.8S20,15.2,20,14.9V4.4c0-0.4,0.4-1.6,1.8-1.9C22.5,2.4,23.5,2,24.1,2h0.5
				c0.7,0,0.9,0.4,1.3,0.7C26.2,3,26,3.7,26,4.3v10.6C26,15.2,25.9,15.6,25.5,15.6z"/>
		</g>
		<path class="st2" d="M29,19h-9c-0.4,0-0.7-0.1-0.7-0.5S19.6,18,20,18h9c0.4,0,0.7,0.1,0.7,0.5S29.4,19,29,19z"/>
		<path class="st2" d="M29,22h-9c-0.4,0-0.7-0.1-0.7-0.5S19.6,21,20,21h9c0.4,0,0.7,0.1,0.7,0.5S29.4,22,29,22z"/>
		<path class="st2" d="M27.7,26h-8.1c-0.4,0-0.7-0.1-0.7-0.5s0.3-0.5,0.7-0.5h8.1c0.4,0,0.7,0.1,0.7,0.5S28,26,27.7,26z"/>
		<path class="st2" d="M24.9,29H19c-0.4,0-0.7-0.1-0.7-0.5S18.6,28,19,28h5.9c0.4,0,0.7,0.1,0.7,0.5S25.3,29,24.9,29z"/>
		<path class="st2" d="M20,39h-7v-7C8,30.4,3,25.8,3,20v-5h27.3l-0.7,5.6c0,5.5-3.6,9.9-9.6,11.5C20,32.1,20,39,20,39z M14,38h5
			v-6.9l0.6-0.1c5.4-1.3,8.9-5.4,8.9-10.4v-0.2l0.4-4.3H5v4c0,5.3,4.4,9.6,8.3,10.8L14,31V38z"/>
		<path class="st2" d="M21.9,47.7c-2,0-3.6-0.6-4.6-1.6C15.9,44.7,16,43,16,42.9v-3.7c0-0.4,0.1-0.7,0.5-0.7s0.5,0.3,0.5,0.7v3.7
			c0,0,0.1,1.3,1.1,2.2c0.8,0.8,2.1,1.2,3.7,1.2c1.5,0,2.6-0.4,3.3-1.2c1-1,0.9-2.3,0.9-2.3v-7.7c0-2.6,2.5-7.5,10.4-7.5
			c9.5,0,10.1,7.4,10.1,7.5v3.6c0,0.4-0.4,0.7-0.8,0.7c-0.4,0-0.8-0.3-0.8-0.7v-3.5c0-0.2-0.7-6.1-8.9-6.1c-8.6,0-9.1,5.9-9.1,6.2
			v7.6c0,0.1,0.3,1.9-1,3.2C24.9,47.2,23.8,47.7,21.9,47.7z"/>
	</g>
</g>
<g id="Layer_3" class="st0">
	<path class="st3" d="M37,47H14V24.6l-1,1.2l-5.3-5.4l0.1-0.3c0.1-0.3,2.7-8.4,6.8-9.5L21.2,9l0.1,0.6c0,0.2,0.9,4.4,4.7,4.4
		c0,0,0,0,0.1,0c0.2,0,3.8,0,4.5-4.4L30.7,9h0.5c0.6,0.1,6.3,0.9,7.9,1.7c0.4,0.2,2.6,1.5,5.3,9l0.1,0.3l-6,5.3l-1.5-1V47z M15,46
		h21V22.2l2.4,1.9l4.8-4.3c-2.6-7.1-4.6-8.1-4.6-8.1l0,0c-1-0.6-5.1-1.1-7.1-1.4C30.7,14.1,27.6,15,26,15h-0.1
		c-3.7,0-5.1-3.4-5.5-4.7l-5.6,1.2c-1.4,0.4-2.9,2-4.3,4.7c-0.8,1.6-1.4,3.2-1.6,3.8l4.1,4.2l2-2.5C15,21.7,15,46,15,46z"/>
	<rect x="11.7" y="15.8" transform="matrix(0.7354 -0.6777 0.6777 0.7354 -10.1474 13.5164)" class="st3" width="1" height="7.9"/>
	<rect x="35.2" y="19.3" transform="matrix(0.6863 -0.7273 0.7273 0.6863 -1.9722 35.0242)" class="st3" width="8.9" height="1"/>
	<polygon class="st3" points="21.3,10.9 20.8,10 26.2,7.6 31,9.9 30.6,10.8 26.2,8.7 	"/>
	<path class="st3" d="M26,8h-1V6.1l0.2-0.2c0.8-0.5,1.2-1.1,1.3-1.6c0.1-0.3-0.1-0.6-0.1-0.6c-0.3-0.3-0.6-0.4-0.9-0.4
		c-0.5,0.1-0.9,0.9-1,1.2l-1-0.3c0.1-0.2,0.6-1.6,1.7-1.9c0.8-0.1,1.4,0.1,2,0.7l0.1,0.1c0,0.1,0.4,0.6,0.3,1.4
		C27.4,5.3,27,6,26,6.6V8z"/>
</g>
<g id="Layer_4" class="st0">
	<g class="st1">
		<path class="st2" d="M24.4,19.1c-2.1,0-3.7-0.9-3.7-2.1s1.6-2.1,3.7-2.1s3.7,0.9,3.7,2.1S26.5,19.1,24.4,19.1z M24.4,15.8
			c-1.6,0-2.8,0.7-2.8,1.2c0,0.6,1.2,1.2,2.8,1.2c1.6,0,2.8-0.7,2.8-1.2C27.2,16.4,26,15.8,24.4,15.8z"/>
		<g>
			<path class="st2" d="M18.7,22.2l-0.9-0.1c0-0.4,0.4-4,2-5c0.5-0.3,1-0.3,1.6-0.1l-0.3,0.8c-0.3-0.1-0.5-0.1-0.8,0
				C19.4,18.5,18.9,20.9,18.7,22.2z"/>
			<path class="st2" d="M30.1,22.2c-0.1-1.4-0.7-3.8-1.6-4.3c-0.2-0.1-0.5-0.1-0.8,0l-0.3-0.8c0.6-0.2,1.1-0.2,1.6,0.1
				c1.6,1,2,4.6,2,5L30.1,22.2z"/>
		</g>
		<path class="st2" d="M24.4,37.3c-4.5,0-8.1-4.7-8.1-10.6c0-2.6,0.4-4.1,1.2-4.7c0.9-0.7,2.1-0.3,3.5,0.2c1,0.3,2.2,0.7,3.4,0.7
			c1.2,0,2.3-0.4,3.4-0.7c1.4-0.5,2.6-0.8,3.5-0.2c0.9,0.6,1.2,2.1,1.2,4.6C32.5,32.5,28.9,37.3,24.4,37.3z M18.7,22.6
			c-0.3,0-0.5,0.1-0.6,0.2c-0.6,0.4-0.9,1.7-0.9,4c0,5.3,3.2,9.7,7.2,9.7s7.2-4.3,7.2-9.7c0-2.2-0.3-3.5-0.9-3.9s-1.6-0.1-2.7,0.3
			c-1.1,0.3-2.3,0.7-3.6,0.7c-1.3,0-2.6-0.4-3.7-0.8C20,22.8,19.3,22.6,18.7,22.6z"/>
		<path class="st2" d="M25.9,15.9c-0.2,0-0.4-0.2-0.5-0.4c-0.2-3,4.7-6.3,4.9-6.5c0.2-0.1,0.5-0.1,0.6,0.1C31,9.3,31,9.6,30.8,9.7
			c-1.3,0.9-4.6,3.6-4.5,5.6C26.3,15.7,26.1,15.9,25.9,15.9L25.9,15.9z"/>
		<path class="st2" d="M30.2,20.7c-0.1,0-0.1,0-0.2,0c-0.2-0.1-0.4-0.3-0.3-0.6l1.6-4.4c0-0.1,0.1-0.1,0.1-0.2l1.9-1.7
			c0.2-0.2,0.5-0.2,0.6,0c0.2,0.2,0.2,0.5,0,0.6L32.2,16l-1.6,4.3C30.5,20.5,30.4,20.7,30.2,20.7z"/>
		<path class="st2" d="M36.7,29.9c-0.1,0-0.1,0-0.2-0.1L33.2,28c-0.1,0-0.2-0.1-0.2-0.2L31.5,24c-0.1-0.2,0-0.5,0.2-0.6
			s0.5,0,0.6,0.2l1.5,3.6l3.2,1.7c0.2,0.1,0.3,0.4,0.2,0.6C37,29.8,36.9,29.9,36.7,29.9z"/>
		<path class="st2" d="M32.1,40.5c-0.2,0-0.3-0.1-0.4-0.2L30,37.1c0-0.1-0.1-0.2,0-0.3l0.9-5.6c0-0.2,0.3-0.4,0.5-0.4
			s0.4,0.3,0.4,0.5l-0.9,5.5l1.6,3.1c0.1,0.2,0,0.5-0.2,0.6C32.2,40.5,32.1,40.5,32.1,40.5z"/>
		<path class="st2" d="M22.9,15.9L22.9,15.9c-0.3,0-0.5-0.2-0.5-0.5c0.1-2.1-3.2-4.8-4.5-5.6c-0.2-0.1-0.3-0.4-0.1-0.6
			C18,9,18.3,8.9,18.5,9.1c0.2,0.1,5.1,3.4,4.9,6.5C23.4,15.8,23.2,15.9,22.9,15.9z"/>
		<path class="st2" d="M18.6,20.7c-0.2,0-0.4-0.1-0.4-0.3L16.6,16l-1.8-1.7c-0.2-0.2-0.2-0.5,0-0.6c0.2-0.2,0.5-0.2,0.6,0l1.9,1.7
			c0.1,0,0.1,0.1,0.1,0.2L19,20c0.1,0.2,0,0.5-0.3,0.6C18.7,20.6,18.7,20.7,18.6,20.7z"/>
		<path class="st2" d="M12.1,29.9c-0.2,0-0.3-0.1-0.4-0.2c-0.1-0.2,0-0.5,0.2-0.6l3.2-1.7l1.5-3.6c0.1-0.2,0.4-0.3,0.6-0.2
			c0.2,0.1,0.3,0.4,0.2,0.6L15.9,28c0,0.1-0.1,0.2-0.2,0.2L12.4,30C12.3,29.9,12.2,29.9,12.1,29.9z"/>
		<path class="st2" d="M16.7,40.5c-0.1,0-0.1,0-0.2-0.1c-0.2-0.1-0.3-0.4-0.2-0.6l1.6-3.1L17,31.2c0-0.2,0.1-0.5,0.4-0.5
			c0.2,0,0.5,0.1,0.5,0.4l0.9,5.6c0,0.1,0,0.2,0,0.3l-1.7,3.2C17.1,40.4,16.9,40.5,16.7,40.5z"/>
		<path class="st2" d="M19.7,35.1c-0.2,0-0.4-0.1-0.4-0.3c-1.6-6.5,0.3-12.3,0.3-12.6c0.1-0.2,0.3-0.4,0.6-0.3
			c0.2,0.1,0.4,0.3,0.3,0.6c0,0.1-1.9,5.9-0.3,12c0.1,0.2-0.1,0.5-0.3,0.5C19.7,35.1,19.7,35.1,19.7,35.1z"/>
		<path class="st2" d="M22.8,37c-0.2,0-0.4-0.1-0.4-0.3c-2.1-6.7,0-13.4,0.1-13.6s0.3-0.4,0.6-0.3c0.2,0.1,0.4,0.3,0.3,0.6
			c0,0.1-2,6.7-0.1,13.1c0.1,0.2-0.1,0.5-0.3,0.6C22.9,37,22.9,37,22.8,37z"/>
		<path class="st2" d="M29.1,35.1H29c-0.2-0.1-0.4-0.3-0.3-0.5c1.6-6.2-0.3-12-0.3-12c-0.1-0.2,0.1-0.5,0.3-0.6
			c0.2-0.1,0.5,0.1,0.6,0.3c0.1,0.2,2,6.1,0.3,12.6C29.5,35,29.3,35.1,29.1,35.1z"/>
		<path class="st2" d="M26,37h-0.1c-0.2-0.1-0.4-0.3-0.3-0.6c2-6.4,0-13-0.1-13.1c-0.1-0.2,0.1-0.5,0.3-0.6c0.2-0.1,0.5,0.1,0.6,0.3
			c0.1,0.3,2.1,7,0.1,13.6C26.3,36.9,26.1,37,26,37z"/>
		<path class="st2" d="M25,47.5C12.6,47.5,2.5,37.4,2.5,25S12.6,2.5,25,2.5S47.5,12.6,47.5,25S37.4,47.5,25,47.5z M25,3.4
			C13.1,3.4,3.4,13.1,3.4,25S13.1,46.6,25,46.6S46.6,36.9,46.6,25S36.9,3.4,25,3.4z"/>
		<path class="st2" d="M5.7,36.2c-0.2,0-0.3-0.1-0.4-0.2c-0.1-0.2,0-0.5,0.2-0.6l38.6-21.5c0.2-0.1,0.5,0,0.6,0.2s0,0.5-0.2,0.6
			L5.9,36.1C5.8,36.1,5.8,36.2,5.7,36.2z"/>
	</g>
</g>
<g id="Layer_5" class="st0">
	<g class="st1">
		<path class="st2" d="M12.6,47.5c-0.6,0-2.4-0.1-3.3-1.6c-1.1-1.9-0.2-5,2.6-9.4l0.5-0.7l0.5,0.7c0,0.1,1.1,1.4,2,3.2
			c1.3,2.5,1.7,4.4,1.1,5.8c-0.5,1.2-1.6,1.9-3.2,2.1C12.8,47.5,12.7,47.5,12.6,47.5z M12.5,37.9c-2.8,4.6-2.5,6.5-2.1,7.3
			c0.6,1.1,2.3,1,2.3,1c1.2-0.2,1.9-0.6,2.2-1.3C15.7,43.1,13.7,39.7,12.5,37.9z"/>
		<path class="st2" d="M16.6,36H7.4L7,33.8v-2.4c0-0.6,0.2-0.9,0.4-1.1C7.6,30.1,7.9,30,8.1,30v-4.2C9,18.8,17,19,17,19h2v-1.2
			c0-0.4,0-0.7,0.3-0.9c0.6-0.4,1.3,0.1,1.8,0.1H21v-5c0-0.6,0.4-0.9,0.6-1c0.6-0.4,1.6,0,2,0h4.8c0.6,0,0.9,0,1,0.6
			c0,0.1,0.6,0.3-0.4,0.4v5h1v-0.2l0.9,0.2c0.2,0.1,0.7,0.2,0.6,0.8c0,0.3,0.4,0.4-0.6,0.5V19h6v-1h5.9l-0.2,11H37v-2H19.4
			c-2.2,0-3.4,1.2-3.4,1.6V30c1,0.2,1,1.1,1,1.2v2.1c0,0.6,0.2,1.8,0.2,1.8l0.1,0.9H16.6z M8.3,35H16c0-1,0-1.4,0-1.7v-2
			c0,0-0.3-0.3-0.7-0.3H15v-2.8h-0.1c0.1-0.1,1.2-2.2,4.5-2.2H38v2h3.5l0.2-9H38v2h-8v-3h-2v-6h-4.6H23c-0.3-0.1,0-0.1-1-0.1l0,0v6
			h-1.1L20.8,18c-0.2-0.1-0.7,0-0.7-0.1V21h-3c-0.3,0-7-0.8-8,5v5.4l-0.6-0.3C8.2,31.1,8.1,31,8,31l0,0c0,0-0.1,0.3-0.1,0.4v2.2
			L8.3,35z M15.9,31.3L15.9,31.3L15.9,31.3z"/>
		<path class="st2" d="M26.1,8.4c-1.6,0-2.9-1.3-2.9-2.9s1.3-2.9,2.9-2.9S29,3.9,29,5.5C29.1,7.1,27.8,8.4,26.1,8.4z M26.1,3.7
			c-0.9,0-1.7,0.8-1.7,1.7s0.8,1.7,1.7,1.7c0.9,0,1.7-0.8,1.7-1.7S27.1,3.7,26.1,3.7z"/>
		<path class="st2" d="M27,12h-3V5.4l1,1.7c0.2,0.1,0.8,0,1.3-0.2L27,6.6V12z M25,11h1V8.3c-1,0.1-1,0.1-1,0.1V11z"/>
		<path class="st2" d="M33.9,7.6L33.9,7.6l-6.6-1l0.6-0.8c0.1-0.1,0-0.6-0.1-1l-0.2-0.7l6.3-1c0.9,0,1.4,0.4,1.7,0.7
			C36.1,4.4,36,5.2,36,5.4C35.7,7.2,34.5,7.6,33.9,7.6z M29.1,5.6l4.8,0.7c0.2,0,0.7-0.2,0.8-1V5.2l0,0c0,0,0.1-0.4-0.1-0.6
			c-0.2-0.2-0.5-0.2-0.7-0.2l-4.8,0.7C29.1,5.3,29.1,5.5,29.1,5.6z"/>
		<path class="st2" d="M18.5,8L18.5,8c-1,0-1.5-0.6-1.7-0.9c-0.5-0.6-0.4-1.5-0.4-1.7c0.2-1.7,1.4-2.2,2-2.2h0.1l6.5,1L24.4,5
			c-0.1,0.1,0,0.6,0.1,1l0.2,0.9L18.5,8z M17.6,5.5c0,0-0.1,0.4,0.1,0.6s0.5,0.2,0.7,0.2l4.8-0.7c0-0.2,0-0.3,0-0.5l-4.8-0.7
			C18.1,4.4,17.6,4.6,17.6,5.5L17.6,5.5L17.6,5.5z"/>
	</g>
</g>
<g id="Layer_6" class="st0">
	<g class="st1">
		<path class="st2" d="M22.9,47.5l-7-7l1.4-4c-0.7,0.9-1.4,1.8-1.5,2.5l-0.2,1L5.3,30.1v-0.3c0-0.2,0.5-5.1,3.6-8.2
			c2.9-2.9,9.3-9.2,9.4-9.3l0.1-0.1c1.1-0.8,3.7-1.7,5.6,0.3l3.5,3.5c0.2,0.1,0.8,0.1,1.4-0.8c1-1.5,8.2-11.4,8.5-11.8l0.1-0.1
			c1-0.8,3.4-1.8,5.7,0.3s1.5,4.7,0.7,5.8l-0.1,0.1l-0.1,0.1l-12.3,8.5c-0.2,0.2-0.7,1-0.1,1.8c1.1,1.2,3.2,3.2,3.2,3.2l0.1,0.1
			c0.1,0.1,2,2.9,0.3,5.3c-1.5,2-7.5,7.9-7.8,8.2c-0.1,0.1-5.4,5.2-4.7,9L22.9,47.5z M17.2,40.2l4.2,4.2c0.4-4.1,4.9-8.3,5.1-8.5
			c0.1-0.1,6.2-6.1,7.7-8c1.2-1.5-0.1-3.5-0.3-3.9c-0.3-0.3-2.2-2.1-3.2-3.2c-1.2-1.3-0.5-2.8,0.1-3.4l0.1-0.1l12.2-8.4
			c0.3-0.4,1.4-2.5-0.6-4.2c-2-1.8-3.9-0.6-4.2-0.3c-0.6,0.9-7.5,10.2-8.4,11.6c-1,1.5-2.3,1.4-2.9,1.2h-0.1l-3.7-3.7
			c-1.6-1.6-3.8-0.4-4.1-0.1c-0.5,0.5-6.5,6.4-9.3,9.2c-2.4,2.4-3.1,6.2-3.2,7.2l8.5,8.2c0.9-1.8,3.1-3.9,3.4-4.2l1.7-1.7L17.2,40.2
			z"/>
		<path class="st2" d="M40.1,8.7c-0.9,0-1.7-0.8-1.7-1.7s0.8-1.7,1.7-1.7s1.7,0.8,1.7,1.7S41,8.7,40.1,8.7z M40.1,6.5
			c-0.3,0-0.5,0.2-0.5,0.5s0.2,0.5,0.5,0.5s0.5-0.2,0.5-0.5S40.4,6.5,40.1,6.5z"/>
		<path class="st2" d="M9.6,33H8.5c0.1-3.8,5.2-9.1,5.4-9.3l0.8,0.8C14.6,24.5,9.7,29.6,9.6,33z"/>
		<path class="st2" d="M10.3,34.7c-0.1-1.5,1.3-4.2,1.5-4.5l1,0.5c-0.4,0.7-1.4,2.9-1.4,3.9L10.3,34.7z"/>
		
			<rect x="23.3" y="12.4" transform="matrix(0.7071 -0.7071 0.7071 0.7071 -9.6788 23.7523)" class="st2" width="1.1" height="22.3"/>
	</g>
</g>
<g id="Layer_7" class="st0">
	<g class="st1">
		<path class="st4" d="M25,47.5C12.6,47.5,2.5,37.4,2.5,25S12.6,2.5,25,2.5S47.5,12.6,47.5,25S37.4,47.5,25,47.5z M25,3.3
			C13,3.3,3.3,13,3.3,25S13,46.7,25,46.7S46.7,37,46.7,25S37,3.3,25,3.3z"/>
		<path class="st4" d="M24.9,44.3C14.3,44.3,5.6,35.7,5.6,25c0-10.6,8.6-19.3,19.3-19.3c10.6,0,19.3,8.6,19.3,19.3
			C44.2,35.7,35.5,44.3,24.9,44.3z M24.9,6.6c-10.2,0-18.5,8.3-18.5,18.5s8.3,18.5,18.5,18.5s18.5-8.3,18.5-18.5S35.1,6.6,24.9,6.6z
			"/>
		<path class="st4" d="M24.7,40.6c-0.9,0-1.9-0.1-2.9-0.4l-0.3-0.1l-1-5l0,0c0-0.1,0-5.8-4.9-7.9c0,0-3.4-1.2-6-1.7l-0.3-0.1v-0.3
			c0-0.4,0.2-3.6,0.7-4.6l0.1-0.1l0.1-0.1c0.1-0.1,12.9-6.6,29.5,0l0.2,0.1l0.1,0.2c0.1,0.4,1,3.5,0.7,4.6l-0.1,0.2h-0.2
			c0,0-4.7,0.9-6.9,2.1h-0.1c-0.1,0.1-3.7,1.5-4.3,7.7L28.2,40L28,40.1C27.8,40.2,26.5,40.6,24.7,40.6z M22.2,39.5
			c2.2,0.5,4.5,0.2,5.2,0l0.8-4.3c0.6-6.5,4.3-8.2,4.7-8.3c2.1-1.1,5.8-1.9,6.8-2.1c0.1-0.8-0.3-2.6-0.7-3.8
			c-15.3-6-27.2-0.7-28.5-0.1c-0.3,0.8-0.5,2.8-0.6,3.8c2.6,0.5,5.7,1.6,5.8,1.7c5.2,2.2,5.4,8,5.5,8.6L22.2,39.5z"/>
		<path class="st4" d="M24.9,30.1c-2.8,0-5-2.3-5-5s2.3-5,5-5s5,2.3,5,5S27.7,30.1,24.9,30.1z M24.9,20.8c-2.3,0-4.2,1.9-4.2,4.2
			s1.9,4.2,4.2,4.2s4.2-1.9,4.2-4.2C29.1,22.7,27.2,20.8,24.9,20.8z"/>
	</g>
</g>
<g id="Layer_8" class="st0">
	<path class="st3" d="M30,47.5H20c-5.1,0-9.2-4.1-9.2-9.2V11.7c0-5.1,4.1-9.2,9.2-9.2h10c5.1,0,9.2,4.1,9.2,9.2v26.7
		C39.1,43.4,35,47.5,30,47.5z M12.1,9.9v30.2c0,3.4,2.8,6.2,6.2,6.2h13.5c3.4,0,6.2-2.8,6.2-6.2V9.9c0-3.4-2.8-6.2-6.2-6.2H18.3
		C14.9,3.7,12.1,6.5,12.1,9.9z"/>
	<path class="st3" d="M32.7,42H17.3c-2.1,0-4.3-2.2-4.3-4.5V12.4c0-2.3,2.3-3.4,4.3-3.4h15.4c2.1,0,3.3,1.2,3.3,3.4v25.1
		C36,39.9,34.7,42,32.7,42z M17.3,10C16,10,14,10.8,14,12.4v25.1c0,1.6,1.9,3.5,3.3,3.5h15.4c1.4,0,2.3-2,2.3-3.5V12.4
		c0-1.5-0.9-2.4-2.3-2.4H17.3z"/>
	<path class="st3" d="M25,27.9c-1.6,0-2.9-1.3-2.9-2.9s1.3-2.9,2.9-2.9s2.9,1.3,2.9,2.9S26.6,27.9,25,27.9z M25,23.3
		c-0.9,0-1.7,0.7-1.7,1.6s0.7,1.7,1.7,1.7c0.9,0,1.6-0.7,1.6-1.7C26.7,24.1,25.9,23.3,25,23.3z"/>
</g>
<g>
	<path class="st2" d="M29.1,5.3c0,0,9.2-3.7,9.9,7.6c0,0,2-5-2.4-7.8C36.6,5.1,32.7,2.6,29.1,5.3z"/>
	<path class="st2" d="M39,13.2v-0.3c-0.2-3.6-1.3-6-3.3-7.2c-2.8-1.8-6.5-0.3-6.5-0.3l-0.4,0.2l0.4-0.3c3.6-2.7,7.5-0.2,7.6-0.2
		c4.4,2.8,2.4,7.8,2.4,7.9L39,13.2z M32.3,4.7c1.1,0,2.3,0.2,3.4,0.9c1.9,1.2,3,3.6,3.3,7c0.3-1.1,1.3-5.1-2.5-7.4
		c0,0-3.7-2.3-7.1,0C30,4.9,31.1,4.7,32.3,4.7z"/>
</g>
<g>
	<path class="st2" d="M12.6,30.4c0,0-5.1-7.9-0.2-17.5c0,0,3.7-8.7,16-8.2c0,0-12.8-3.4-18.1,9C10.3,13.6,6.7,23.4,12.6,30.4z"/>
	<path class="st2" d="M12.6,30.4c-3.1-3.6-3.6-8-3.4-11c0.2-3.3,1.1-5.8,1.1-5.8c1.2-2.8,2.9-5.1,5.1-6.6c1.7-1.3,3.7-2.1,6-2.5
		c3.8-0.7,7,0.1,7.1,0.1L29,4.7h-0.6C22,4.4,18.1,6.6,15.8,8.6c-2.4,2.1-3.4,4.3-3.4,4.3c-2.5,5-2.3,9.5-1.7,12.4
		C11.4,28.3,12.7,30.3,12.6,30.4L12.6,30.4z M24.5,4.3c-0.9,0-2,0.1-3.1,0.3c-2.2,0.4-4.2,1.2-5.9,2.5c-2.1,1.6-3.8,3.8-5,6.6
		c0,0-0.9,2.5-1.1,5.7c-0.1,2.9,0.3,6.9,3,10.4c-0.4-0.8-1.2-2.4-1.6-4.6c-0.6-2.9-0.8-7.4,1.7-12.4c0,0,1-2.2,3.4-4.3
		c2.2-1.9,6-4,11.9-3.9C27,4.5,25.9,4.3,24.5,4.3z"/>
</g>
<g>
	<path class="st2" d="M24.6,41.8c0,0-3-0.4-2.5,2.8c0,0,0.3,3.1,4.8,2.8c0,0,5.2-0.5,4.2-7c0,0-0.4-1.9-1.7-2.9c0,0,3.9,1.9,2.7,7
		c0,0-1.6,5.1-7.2,4.3c-0.1,0-4.4-0.7-4.2-5C20.7,43.9,20.8,39.9,24.6,41.8z"/>
	<path class="st2" d="M26.1,49c-0.4,0-0.8,0-1.2-0.1l0,0c-0.2,0-1.5-0.3-2.7-1.2c-1.1-0.9-1.7-2.2-1.6-3.8c0-0.1,0.1-1.7,1.2-2.4
		c0.7-0.4,1.7-0.3,2.9,0.3L25,42h-0.3c0,0-1.2-0.2-2,0.6c-0.5,0.5-0.6,1.2-0.5,2.2c0,0.1,0.3,3,4.7,2.8c0,0,2-0.2,3.2-1.9
		c0.9-1.2,1.3-2.9,0.9-5c0,0-0.5-1.9-1.7-2.9l-0.4-0.3l0.4,0.2c0,0,3.9,2,2.8,7C32.1,44.7,30.7,49,26.1,49z M24.9,48.8L24.9,48.8
		c2.9,0.4,4.7-0.7,5.7-1.8c1.1-1.1,1.5-2.4,1.5-2.4c0.9-3.9-1.3-5.9-2.3-6.6c0.9,1,1.3,2.5,1.3,2.6c0.3,2.2,0,3.9-0.9,5.1
		c-1.3,1.7-3.3,1.9-3.3,1.9c-0.2,0-0.4,0-0.5,0c-4,0-4.3-2.9-4.3-2.9c-0.1-1,0.1-1.8,0.6-2.3c0.6-0.5,1.3-0.6,1.8-0.6
		c-1-0.5-1.9-0.5-2.5-0.2c-1.1,0.6-1.1,2.3-1.1,2.3c-0.1,1.4,0.3,2.5,1.2,3.4C23.1,48.5,24.7,48.8,24.9,48.8L24.9,48.8L24.9,48.8z"
		/>
</g>
<g>
	<path class="st2" d="M23.7,43.7c0,0,1.2,3,3.6,1.3c0,0,2.2-1.8-1-4.6c0,0-2.2-1.6-3.8-2.2c0,0-6.9-2.2-10-10c0,0-1.6-3.1-0.8-8.8
		c0,0,0.7-5.5,4.9-10c0,0-7.2,10.3-1.7,20.5c0,0,2.7,4.3,7.4,6.2c0,0,6.9,2.3,7.5,6.4c0,0,0.9,4.7-4.5,3.9
		C25.3,46.3,23.9,45.8,23.7,43.7z"/>
	<path class="st2" d="M26.5,46.5c-0.4,0-0.8,0-1.3-0.1c0,0-1.5-0.5-1.6-2.7v-0.4l0.1,0.3c0,0,0.5,1.4,1.6,1.7c0.6,0.2,1.2,0,1.9-0.5
		c0,0,0.7-0.6,0.7-1.6c0-0.9-0.6-1.9-1.7-2.9c0,0-2.2-1.6-3.7-2.2c-0.1,0-6.9-2.3-10-10c0,0-1.6-3.1-0.8-8.9c0-0.1,0.8-5.6,4.9-10
		l0.1,0.1c0,0-1.8,2.6-2.9,6.4c-1,3.5-1.6,8.8,1.2,14c0,0,2.7,4.3,7.3,6.2c0.1,0,7,2.4,7.5,6.5c0,0,0.4,2-0.8,3.1
		C28.5,46.2,27.7,46.5,26.5,46.5z M23.8,44c0.2,1.8,1.4,2.2,1.5,2.2c1.7,0.3,3,0,3.7-0.8c1.1-1.1,0.7-3,0.7-3
		c-0.5-4-7.4-6.3-7.4-6.4c-4.7-1.8-7.4-6.2-7.4-6.2c-2.9-5.3-2.2-10.6-1.2-14.1c0.8-2.7,2-4.9,2.6-5.8c-3.7,4.3-4.4,9.4-4.4,9.4
		c-0.7,5.7,0.8,8.8,0.8,8.8c3.1,7.7,9.9,10,10,10c1.6,0.6,3.8,2.2,3.8,2.2c1.2,1,1.8,2,1.8,3c0,1.1-0.7,1.7-0.7,1.7
		c-0.7,0.5-1.4,0.7-2,0.5C24.6,45.2,24.1,44.5,23.8,44z"/>
</g>
<g>
	<path class="st2" d="M30.6,6.4c0,0,3.9,5.9-2.3,9.9c0,0-3.6,2-5,2.5c0,0-5.5,2.8-4.9,9.4c0,0,0.6,5.8,6,7.5c0,0-6.2-4.1-3.6-11
		c0,0,1.3-3.2,6.3-6.1C27.2,18.8,36.7,14.1,30.6,6.4z"/>
	<path class="st2" d="M24.8,36l-0.4-0.1c-5.4-1.8-6.1-7.5-6.1-7.6c-0.3-3.4,1-5.8,2.2-7.2c1.3-1.5,2.7-2.2,2.7-2.2
		c1.4-0.6,5-2.5,5-2.5c1.9-1.2,3-2.7,3.3-4.5c0.6-2.8-1.1-5.3-1.1-5.4l0.1-0.1c1.7,2.2,2.4,4.3,1.9,6.4c-0.9,3.8-5.3,6.1-5.3,6.1
		c-5,2.9-6.3,6-6.3,6c-1.3,3.5-0.3,6.3,0.8,8c1.2,1.8,2.7,2.9,2.7,2.9L24.8,36z M31,7.1c0.5,1,1.1,2.8,0.7,4.7
		c-0.4,1.8-1.5,3.3-3.4,4.6c0,0-3.7,2-5,2.5c-0.1,0-5.5,2.9-4.9,9.3c0,0.1,0.7,5.5,5.6,7.3c-0.5-0.4-1.6-1.3-2.5-2.7
		c-1.1-1.7-2.2-4.5-0.8-8.1c0,0,1.3-3.2,6.3-6.1c0,0,4.4-2.2,5.3-6C32.8,10.9,32.3,9,31,7.1z"/>
</g>
<g>
	<path class="st2" d="M30.3,17.6c0,0,1.1,5.1-2.4,8.2c0,0-3.7,2.7-3.2,6.8c0,0,1.6,6.5,7.7,3.3c0,0,3.3-2,0.9-5.5c0,0-1.9-2-4.3-0.5
		c0,0-2.3,1.7-0.1,4c0,0,1.7,1.2,2.5-0.5c0,0,0.2-0.7-0.3-1.5c0,0-0.3,2.3-1.6,0.7c0,0-0.9-1.5,1.4-1.8c0.1-0.1,2.3,0.1,1.8,3.1
		c0,0-1.1,3.1-4.8,0.9c0,0-2.5-1.4-0.5-5.8c0,0,1-1.6,2.5-3.4C29.8,25.5,32.4,22.6,30.3,17.6z"/>
	<path class="st2" d="M29.3,36.9c-0.6,0-1.1-0.1-1.6-0.3c-1.9-0.8-2.8-3-3.1-3.9l0,0l0,0l0,0c-0.5-4.1,3.2-6.9,3.2-6.9
		c3.5-3.1,2.4-8.1,2.4-8.2h0.1c2.1,5-0.5,7.9-0.5,8c-1.4,1.8-2.4,3.4-2.5,3.4c-2,4.3,0.4,5.7,0.4,5.7c1.2,0.7,2.3,0.9,3.2,0.6
		c1.1-0.4,1.5-1.5,1.5-1.5c0.2-1.1,0-2-0.5-2.5s-1.1-0.5-1.2-0.5l0,0l0,0c-0.8,0.1-1.2,0.4-1.4,0.7c-0.2,0.5,0.1,1,0.1,1
		c0.3,0.4,0.6,0.6,0.9,0.5c0.5-0.1,0.6-1.2,0.6-1.2v-0.2l0.1,0.1c0.5,0.8,0.3,1.5,0.3,1.6c-0.2,0.5-0.6,0.8-1,0.9
		c-0.8,0.2-1.6-0.3-1.6-0.4c-0.7-0.7-1-1.5-1-2.2c0.1-1.1,1.1-1.9,1.1-1.9c2.4-1.5,4.3,0.5,4.3,0.5c0.8,1.1,1.1,2.2,0.9,3.2
		c-0.3,1.5-1.7,2.4-1.7,2.4C31.3,36.6,30.2,36.9,29.3,36.9z M24.7,32.6C24.8,32.7,24.8,32.7,24.7,32.6c0.3,0.9,1.1,3.1,3,3.9
		c1.3,0.5,2.8,0.3,4.6-0.6c0,0,1.4-0.8,1.7-2.3c0.2-1-0.1-2-0.8-3.1c0,0-1.9-1.9-4.2-0.5c0,0-1,0.7-1,1.8c-0.1,0.7,0.3,1.4,0.9,2.1
		l0,0c0,0,0.8,0.5,1.5,0.3c0.4-0.1,0.7-0.4,0.9-0.9c0,0,0.2-0.6-0.2-1.3c-0.1,0.3-0.3,1.1-0.7,1.2c-0.3,0.1-0.6-0.1-1-0.6
		c0,0-0.3-0.6-0.1-1.1c0.2-0.4,0.7-0.7,1.5-0.8l0,0c0.1,0,0.5,0,0.9,0.2c0.6,0.3,1.3,1.1,0.9,2.9c0,0.1-0.4,1.2-1.6,1.6
		c-0.9,0.3-2,0.1-3.3-0.6c0,0-2.5-1.5-0.5-5.9c0,0,1-1.6,2.5-3.5c0,0,0.6-0.7,1-2.1c0.3-1.1,0.5-3-0.4-5.3c0.2,1.4,0.3,5.2-2.5,7.7
		C27.9,25.9,24.2,28.6,24.7,32.6z"/>
</g>
<g>
	<path class="st2" d="M34.7,8.8c0,0,3.5,4,3.6,5.2c0,0,0,0.6-0.4,1c0,0-0.1,0.5,0.5,1.2c0,0,2,1.9,2.6,2.3c0,0,0.3,0.3,0,0.5l-1,1.1
		c0,0-0.2,0.4,0.1,0.6l0.6,0.4c0,0,0.2,0.2,0,0.3c-0.2,0.3-0.5,0.7-0.8,1c-0.2,0.2-0.1,0.4-0.1,0.4L40,23l0.8,0.6
		c0,0,0.2,0.1,0.2,0.2c0,0-0.2,0.7,0.5,1.4c0,0,0.8,1.4-0.6,1.8c0,0-1.3,0.2-2.3,0.2c0,0-3.7,0.3-4,3.5c0,0,0.7-2.9,4.7-3.1
		c0,0,1.6-0.1,2-0.3c0,0,1.2-0.3,0.9-1.7c0,0-0.2-0.8-0.7-1.2c0,0-0.2-0.6,0.1-0.9c0,0,0.9-0.9-0.3-1.3c0,0,0.7-1.1-0.2-1.5
		l-0.6-0.5c0,0,0-0.2,0.3-0.4l0.9-0.9c0,0,0.4-0.4-0.3-0.9l-2.3-2.3c0,0,1.3-0.5,1.3-1.8c0,0-0.9,1.4-1.6,1.2c0,0-0.2-0.3,0-0.6
		c0,0,0.4-0.6,0.2-0.9C38.7,13.8,37,10.5,34.7,8.8z"/>
	<path class="st2" d="M34.5,30.9L34.5,30.9c0.3-3.2,3.9-3.6,4-3.6c0.9,0,2.3-0.2,2.3-0.2c0.3-0.1,0.6-0.3,0.7-0.5
		c0.2-0.5-0.1-1.1-0.2-1.1c-0.7-0.7-0.5-1.4-0.5-1.5s-0.2-0.2-0.2-0.2l0,0l-0.8-0.6L39.6,23c0,0-0.1-0.2,0.1-0.4
		c0.2-0.3,0.5-0.7,0.8-1l0,0l0.1-0.1c0-0.1,0-0.1,0-0.1L40,20.8c-0.3-0.2-0.2-0.6-0.1-0.7l0,0l1-1.1c0.1-0.1,0.1-0.1,0.1-0.2
		s-0.1-0.2-0.1-0.2c-0.6-0.4-2.5-2.2-2.6-2.3c-0.6-0.7-0.5-1.2-0.5-1.2l0,0l0,0c0.4-0.4,0.4-1,0.4-1c0-1.2-3.5-5.1-3.5-5.2l0.1-0.1
		c2.2,1.7,4,5,4,5c0.2,0.4-0.2,1-0.2,1c-0.2,0.2,0,0.4,0,0.5c0.7,0.1,1.5-1.1,1.5-1.2l0.1-0.2v0.2c0,1.1-1,1.7-1.3,1.8l2.3,2.2
		c0.3,0.2,0.4,0.4,0.4,0.6s-0.1,0.4-0.1,0.4L40.6,20c-0.2,0.2-0.2,0.3-0.2,0.4l0.5,0.4c0.3,0.1,0.4,0.3,0.5,0.5
		c0.1,0.4-0.1,0.8-0.2,1c0.3,0.1,0.5,0.3,0.5,0.5c0.1,0.4-0.3,0.9-0.3,0.9c-0.2,0.2-0.1,0.7-0.1,0.8c0.5,0.4,0.7,1.2,0.7,1.2
		c0.3,1.4-0.9,1.7-0.9,1.7c-0.4,0.2-2,0.3-2,0.3C35.3,28,34.5,30.9,34.5,30.9z M40.7,23.7c0.1,0,0.2,0.1,0.2,0.3
		c0,0-0.2,0.7,0.5,1.4l0,0c0,0,0.4,0.7,0.2,1.2c-0.1,0.3-0.4,0.5-0.8,0.6c0,0-1.4,0.2-2.3,0.2c0,0-3.2,0.3-3.9,2.9
		c0.4-0.9,1.6-2.5,4.5-2.6c0,0,1.6-0.1,2-0.3c0.1,0,1.1-0.3,0.8-1.6c0,0-0.2-0.8-0.7-1.1l0,0l0,0c0,0-0.2-0.6,0.1-1
		c0,0,0.4-0.4,0.3-0.8c-0.1-0.2-0.2-0.3-0.5-0.4H41v-0.1c0,0,0.4-0.5,0.2-1c-0.1-0.2-0.2-0.4-0.4-0.5l0,0l-0.6-0.5l0,0
		c0,0,0-0.2,0.3-0.5l0.9-0.9c0,0,0.1-0.1,0.1-0.3c0-0.2-0.2-0.4-0.4-0.5l-2.4-2.3h0.1c0,0,1.1-0.5,1.3-1.5c-0.3,0.4-1,1.2-1.6,1l0,0
		l0,0c0,0-0.2-0.4,0-0.6l0,0c0,0,0.4-0.6,0.2-0.9c0,0-1.5-2.7-3.4-4.5c1,1.1,3.1,3.7,3.1,4.7c0,0,0,0.6-0.4,1.1c0,0.1,0,0.5,0.5,1.1
		c0,0,2,1.9,2.6,2.3c0,0,0.1,0.1,0.1,0.3c0,0.1-0.1,0.2-0.2,0.3l-1,1.1c0,0-0.2,0.4,0.1,0.6l0.6,0.4c0,0,0.1,0.1,0.1,0.2
		s0,0.1-0.1,0.2c-0.2,0.3-0.5,0.7-0.8,1c-0.1,0.2-0.1,0.3-0.1,0.3l0.2,0.2L40.7,23.7z"/>
</g>
</svg>
