<?xml version="1.0" encoding="utf-8"?>
<!-- Generator: Adobe Illustrator 19.2.1, SVG Export Plug-In . SVG Version: 6.00 Build 0)  -->
<svg version="1.1" id="Layer_1" xmlns="http://www.w3.org/2000/svg" xmlns:xlink="http://www.w3.org/1999/xlink" x="0px" y="0px"
	 viewBox="0 0 50 50" style="enable-background:new 0 0 50 50;" xml:space="preserve">
<style type="text/css">
	.st0{fill-rule:evenodd;clip-rule:evenodd;fill:#3B4247;}
</style>
<g>
	<path class="st0" d="M16.3,27.7l-2.1-2.1c0,0-8.3-2.8-8.8-12.4c0,0-0.4-6.2,5.4-6.4l-0.2-3.1c0,0-5.8-1.2-8.1,7.4
		c0,0-0.5,6.6,2.9,10.8C5.4,21.9,8.6,27.4,16.3,27.7z"/>
	<path class="st0" d="M14.4,38.3h21.3l1,9.1H13.4L14.4,38.3z"/>
	<path class="st0" d="M32.6,37.4v-3.1H31c0,0-2.1-1.4-1-3.9c0,0,0.4-1.5,2.7-2.9c0,0,3.9-3.6,4.4-7.7l1.7-17.2h-27L13.4,19
		c0,0-0.5,3.5,2.5,6.6c0,0,2.2,2.5,3.6,3.3c0,0,2.1,2.5,0,5.4h-1.9v3.1H32.6z"/>
	<path class="st0" d="M33.7,27.7l2.1-2.1c0,0,8.3-2.8,8.8-12.4c0,0,0.4-6.2-5.4-6.4l0.2-3.1c0,0,5.8-1.2,8.2,7.5
		c0,0,0.5,6.6-2.9,10.8C44.6,21.9,41.4,27.4,33.7,27.7z"/>
</g>
</svg>
