<?xml version="1.0" encoding="utf-8"?>
<!-- Generator: Adobe Illustrator 19.2.0, SVG Export Plug-In . SVG Version: 6.00 Build 0)  -->
<svg version="1.1" id="Layer_1" xmlns="http://www.w3.org/2000/svg" xmlns:xlink="http://www.w3.org/1999/xlink" x="0px" y="0px"
	 viewBox="0 0 50 50" style="enable-background:new 0 0 50 50;" xml:space="preserve">
<style type="text/css">
	.st0{fill:#4B5B5C;}
</style>
<g>
	<path class="st0" d="M8.3,20.8c-0.3,0-0.6-0.1-0.8-0.4l-3.9-4.5c-0.2-0.2-0.3-0.5-0.3-0.8s0.2-0.6,0.4-0.7l1.6-1.4
		c0.5-0.4,1.1-0.3,1.5,0.1l3.9,4.5c0.4,0.5,0.3,1.1-0.1,1.5L9,20.5C8.8,20.7,8.6,20.8,8.3,20.8z M6.1,13.8l-1.6,1.4l3.9,4.5l2-1.8
		L10,18.3L6.1,13.8z"/>
	<path class="st0" d="M11,19l-5.2-5.7l1.7,0.6c0,0,1.4,0.4,1.8-0.4c0.3-0.6,0.5-2.5,0.6-3.6l0-0.2L15.2,5c0.1-0.1,0.3-0.3,0.5-0.2
		c0.3,0,0.4,0.2,0.5,0.3l0.3,0.4c1.4-0.8,6.2-3.1,10.1,1.4l1.2,1.4l-1.7-0.5c0,0-3.6-1-6.5,1.2l0.7,0.8c0.2,0.2,0.5,0.6,0.5,1
		c0,0.2-0.1,0.4-0.3,0.5l-5.3,4.6l-0.2,0c-1.2-0.1-2.7-0.2-3.2-0.1c-1,0.4-0.7,1.8-0.7,1.8V19z M8.5,15.1l1,1.2
		c0.2-0.6,0.7-1.3,1.5-1.6c0.8-0.3,3-0.1,3.8,0l4.7-4.1c0-0.1-0.1-0.1-0.1-0.1L18,8.8l0.4-0.4c2.1-1.8,4.6-2.1,6.2-2
		c-1.4-1-3-1.4-4.8-1.1c-1.8,0.3-3.1,1.2-3.1,1.2l-0.4,0.3l-0.7-0.9l-4.7,4.1c-0.1,0.8-0.3,3-0.7,3.8C9.8,14.7,9.1,15,8.5,15.1z"/>
	<path class="st0" d="M19.5,18.6l-4.2-4.9l2.9-2.5l4.2,4.9L19.5,18.6z M16.8,13.8l2.8,3.3l1.2-1.1L18,12.7L16.8,13.8z"/>
	<path class="st0" d="M40.5,46.2L18.8,21c-0.5-0.6-0.6-1.3-0.4-2c0.2-0.6,0.6-1.3,1.1-1.7l2-1.8c0.6-0.5,1.2-0.7,1.8-0.7
		c0.6,0,1.2,0.4,1.7,0.9l21.7,25.2L40.5,46.2z M23.1,15.9c-0.3,0-0.6,0.1-0.9,0.4l-2,1.8c-0.4,0.3-0.7,0.8-0.8,1.2
		c-0.1,0.4,0,0.8,0.2,1.1l21,24.4l4.5-3.9l-21-24.4C23.8,16.1,23.5,15.9,23.1,15.9C23.2,15.9,23.1,15.9,23.1,15.9z"/>
</g>
<path class="st0" d="M24.6,30L20,25.1l5.8-5.1l4.2,4.7L24.6,30z M21.5,25.2l3.1,3.3l3.9-3.9l-2.8-3.1L21.5,25.2z"/>
<g>
	<path class="st0" d="M11.6,46.2l-7.8-8.3l9.6-8.9l0.8,0.9l-0.5,0.4l4.9,4.3l0.3,0.3v-0.1l1.1,1.1l0.6,1.1L11.6,46.2z M5.3,37.9
		l6.3,6.7l7.6-7.7l-1.4-1.5L12.9,31L5.3,37.9z"/>
	<path class="st0" d="M20,37.3l-2.1-1.9l-5.2-5.6l9.1-8.6l5.2,5.8v2.7l-1.6-0.3l0,2.5H23v2.8l-3-0.5V37.3z M14.2,29.9l4.5,4.8
		l0.3,0.2V33l2,0.5V31h3.3l0-2.6l1.7,0.3v-1.2l-4.2-4.7L14.2,29.9z"/>
	<path class="st0" d="M32,23.8l-5.9-6.5L40.3,3.8l5.9,6.1L43.3,10l-0.4,3h-2.4l-0.1,2L38,14.7v2l-2,0.6v2.2l-1.6,0.3L34.2,23h-2
		L32,23.8z M31.7,22h1.5l0.2-3.2l1.6-0.3v-2l2-0.6v-2.3l2.3-0.2l0-2.4H42l0.4-2.5l1.2,0.1l-3.3-3.3L27.6,17.4L31.7,22z"/>
</g>
</svg>
