<?xml version="1.0" encoding="utf-8"?>
<!-- Generator: Adobe Illustrator 19.2.1, SVG Export Plug-In . SVG Version: 6.00 Build 0)  -->
<svg version="1.1" xmlns="http://www.w3.org/2000/svg" xmlns:xlink="http://www.w3.org/1999/xlink" x="0px" y="0px"
	 viewBox="0 0 50 50" style="enable-background:new 0 0 50 50;" xml:space="preserve">
<style type="text/css">
	.st0{display:none;}
	.st1{display:inline;fill:#A0A0A0;}
	.st2{display:inline;}
	.st3{fill:#FFFFFF;}
	.st4{fill:#4B5B5C;}
	.st5{display:inline;fill-rule:evenodd;clip-rule:evenodd;fill:#615E62;}
	.st6{fill:#EA5867;}
</style>
<g id="Layer_2" class="st0">
	<rect class="st1" width="50" height="50"/>
</g>
<g id="notification" class="st0">
	<g class="st2">
		<g>
			<path class="st3" d="M4.7,40.4c0.2,0.6,0.8,1,1.5,1h11.7c0.5,3.5,3.5,6.1,7.1,6.1s6.6-2.7,7.1-6.1h11.8l0,0c0.1,0,0.2,0,0.2,0
				c0.6-0.1,1.1-0.5,1.3-1c0.2-0.6,0.1-1.3-0.4-1.7c0,0-0.1-0.1-0.1-0.1c-0.2-0.2-0.8-0.9-1.4-2.4C42.8,34.5,42,31.5,42,27
				c0-9-3.4-13.7-6.2-16.1c-1.9-1.6-3.8-2.4-5-2.7c-0.1-1.1-0.3-2.6-1.3-3.8c-0.7-0.8-2-1.8-4.4-1.8c-2.3,0-3.6,1-4.3,1.8
				c-1,1.2-1.3,2.8-1.4,3.9c-1.3,0.4-3.1,1.2-5,2.7C9.1,15.1,8,22,8,26.9c0,4.4-0.8,7.3-1.5,9C5.8,37.8,5,38.6,5,38.6l0,0
				C4.5,39,4.4,39.7,4.7,40.4z M25,44.3c-1.8,0-3.3-1.2-3.8-2.9h7.6C28.3,43,26.8,44.3,25,44.3z M11.3,26.9
				c0-14.5,9.5-15.9,9.9-15.9c0.4-0.1,0.8-0.3,1.1-0.6c0.3-0.3,0.4-0.8,0.3-1.2c-0.1-0.5-0.1-2,0.6-2.9c0.1-0.2,0.6-0.7,1.9-0.7
				s1.7,0.5,1.9,0.7c0.7,0.8,0.6,2.3,0.6,2.7c-0.1,0.4,0,0.9,0.3,1.2c0.3,0.3,0.6,0.6,1.1,0.6c0,0,2.4,0.3,4.8,2.4
				c3.4,2.8,5.1,7.4,5.1,13.7c0,5.5,1,9,2.1,11.2H9.1C10.1,35.9,11.3,32.3,11.3,26.9z"/>
		</g>
	</g>
</g>
<g id="App_Icon" class="st0">
	<g class="st2">
		<path class="st3" d="M33.7,2.5H16.3c-3.1,0-5.6,2.6-5.6,5.8v33.5c0,3.2,2.5,5.8,5.6,5.8h17.4c3.1,0,5.6-2.6,5.6-5.8V8.3
			C39.3,5.1,36.8,2.5,33.7,2.5z M36.7,41.7c0,1.7-1.3,3.1-3,3.1H16.3c-1.7,0-3-1.4-3-3.1V8.3c0-1.7,1.3-3.1,3-3.1h17.4
			c1.7,0,3,1.4,3,3.1V41.7z"/>
		<path class="st3" d="M25,37.3c1.3,0,2.4,1.1,2.4,2.5c0,1.4-1.1,2.5-2.4,2.5c-1.3,0-2.4-1.1-2.4-2.5C22.6,38.4,23.7,37.3,25,37.3z"
			/>
	</g>
</g>
<g id="Cart" class="st0">
	<g class="st2">
		<path class="st3" d="M23.2,37.5c1.9,0,3.4,1.6,3.4,3.5c0,1.9-1.5,3.5-3.4,3.5c-1.9,0-3.4-1.6-3.4-3.5C19.8,39,21.3,37.5,23.2,37.5
			z"/>
		<path class="st3" d="M37.6,37.5c1.9,0,3.4,1.6,3.4,3.5c0,1.9-1.5,3.5-3.4,3.5c-1.9,0-3.4-1.6-3.4-3.5C34.1,39,35.7,37.5,37.6,37.5
			z"/>
		<path class="st3" d="M4.2,9.2c3.2,0,6.3,0,9.5,0c-0.6-0.5-1.2-0.9-1.7-1.4c2.4,8.5,4.8,17,7.1,25.4c0.2,0.8,0.9,1.4,1.7,1.4
			c6.4,0,12.7,0,19.1,0c0.8,0,1.5-0.6,1.7-1.4c1.9-5.7,3.8-11.5,5.7-17.2c0.4-1.1-0.6-2.3-1.7-2.3c-9.9,0-19.8,0-29.7,0
			c-2.3,0-2.3,3.7,0,3.7c9.9,0,19.8,0,29.7,0c-0.6-0.8-1.2-1.6-1.7-2.3c-1.9,5.7-3.8,11.5-5.7,17.2c0.6-0.5,1.2-0.9,1.7-1.4
			c-6.4,0-12.7,0-19.1,0c0.6,0.5,1.2,0.9,1.7,1.4c-2.4-8.5-4.8-17-7.2-25.4c-0.2-0.8-0.9-1.4-1.7-1.4c-3.2,0-6.3,0-9.5,0
			C1.9,5.5,1.9,9.2,4.2,9.2L4.2,9.2z"/>
	</g>
</g>
<g id="Layer_5" class="st0">
	<g class="st2">
		<path class="st4" d="M28,44.6c0,1.9-1.5,3.4-3.4,3.4h-0.3c-1.9,0-3.4-1.5-3.4-3.4v-0.3c0-1.9,1.5-3.4,3.4-3.4h0.3
			c1.9,0,3.4,1.5,3.4,3.4V44.6z M27,44.3c0-1.3-1-2.3-2.3-2.3h-0.4C23,42,22,43,22,44.3v0.4c0,1.3,1,2.3,2.3,2.3h0.4
			c1.3,0,2.3-1,2.3-2.3V44.3z"/>
		<path class="st4" d="M31,43.8c0,3.5-2.8,6.2-6.2,6.2h-0.5c-3.5,0-6.2-2.8-6.2-6.2v-0.5c0-3.5,2.8-6.2,6.2-6.2h0.5
			c3.5,0,6.2,2.8,6.2,6.2V43.8z M30,43.2c0-2.9-2.3-5.2-5.2-5.2h-0.6c-2.9,0-5.2,2.3-5.2,5.2v0.6c0,2.9,2.3,5.2,5.2,5.2h0.6
			c2.9,0,5.2-2.3,5.2-5.2V43.2z"/>
		<path class="st4" d="M15.4,49.9c-2.4,0-4.3-0.7-5.7-2.1c-2.4-2.2-2.5-5.5-2.5-5.7C6.8,31.3,11.4,26.5,11.9,26c2.9-4,6.5-4,6.7-4
			h4.1c1.5,0,2.6,0.5,3.4,1.4c1.2,1.4,1,3.4,1,3.5l-1.1-0.1c0,0,0.2-1.7-0.7-2.7c-0.6-0.6-1.4-1-2.6-1h-4.2c-0.1,0-3.3,0.1-5.9,3.6
			l-0.1,0.2c0,0-4.8,4.5-4.5,15.2c0,0,0.1,3.1,2.2,5.1c1.3,1.2,3.1,1.9,5.4,1.9H23v1h-7.2C15.7,50,15.5,49.9,15.4,49.9z"/>
		<rect x="26" y="26" class="st4" width="1" height="12"/>
		<path class="st4" d="M15.4,49.5c-3-5.5-0.4-10.1-0.1-10.5c3.2-6.4,11.3-4.9,11.4-4.8l-0.2,1c0,0-1.9-0.4-4.1,0
			c-2.9,0.5-4.9,1.9-6.1,4.3l0,0c-0.1,0.2-2.7,4.4,0.1,9.5L15.4,49.5z"/>
		<path class="st4" d="M7,41H6.2c-1,0-1.4-0.8-1.4-1.2l0-2.3c0-0.6,0.2-1.1,0.5-1.3C5.5,36,5.8,36,5.9,36H7v1H5.9
			c0,0,0.1,0.2,0.1,0.4v2.2c0,0,0,0.4,0.2,0.4H7V41z"/>
		<polygon class="st4" points="10,29.2 7.9,27.6 10.7,23.6 12.9,25.5 12.2,26.3 10.9,25.2 9.4,27.4 10.6,28.4 		"/>
		<path class="st4" d="M47,49H30v-2.1l4.3-3.9h1.7l0.1-8h0.9l0-26.6c0.1-1.9-0.4-3.2-1.5-4.1C32.6,1.8,27,2.8,27,2.9
			C15.4,4.2,10.4,15.5,10.3,15.6c-2.6,5.6,0.4,8.5,0.4,8.5L10,24.9c-0.1-0.1-3.6-3.5-0.6-9.7c0-0.1,5.3-11.9,17.4-13.3
			c0.2,0,6.1-1.1,9.3,1.7c1.4,1.2,2,3.1,1.9,5.3L38,37h-0.9L37,44h-2.3L31,47.4V48h15v-1.2L42.7,44H40v-7h-1.3l0-28.9
			c0,0,0.4-2.8-1.6-4.8C35,1.2,30.8,0.4,25,1.2c-0.1,0-9.2,1.1-15.8,11.5c0,0-1.2,2.1-1.7,4.8c-0.7,3.6,0,6.5,2.2,8.6l-0.8,0.7
			c-5.6-5.7-0.7-14.6-0.6-14.7c6.9-10.9,16.2-12,16.6-12.1C31.1-0.8,35.6,0,38,2.5c2.2,2.3,2,5.1,2,5.5v27h1v8h2l4,3.3V49z"/>
		<path class="st4" d="M25.4,28H15.3l0.8-1.1c1.6-1.7,3.2-2.6,4.8-2.4c2.4,0.2,3.9,2.5,3.9,2.6L25.4,28z M17.8,26h5.4
			c-0.6,0-1.4-1-2.4-1.1C19.8,24.8,18.8,26,17.8,26z"/>
		<rect x="38" y="7" class="st4" width="2" height="1"/>
		<rect x="37.6" y="14.8" class="st4" width="1.6" height="1.1"/>
		<rect x="37" y="35" class="st4" width="2" height="2"/>
		<path class="st4" d="M38.4,45.3c-1.1,0-2-0.5-2.5-1l0.7-0.8c0.2,0.2,1.8,1.6,3.4,0l0.7,0.8C40,45,39.1,45.3,38.4,45.3z"/>
		<rect x="30.2" y="48.2" class="st4" width="1.1" height="1.6"/>
		<rect x="32.3" y="48.2" class="st4" width="1.1" height="1.6"/>
		<rect x="34.5" y="48.2" class="st4" width="1.1" height="1.6"/>
		<rect x="36.6" y="48.2" class="st4" width="1.1" height="1.6"/>
		<rect x="38.7" y="48.2" class="st4" width="1.1" height="1.6"/>
		<rect x="40.8" y="48.2" class="st4" width="1.1" height="1.6"/>
		<rect x="42.4" y="48.2" class="st4" width="1.1" height="1.6"/>
		<rect x="46.1" y="48.2" class="st4" width="1.1" height="1.6"/>
		<rect x="44.5" y="48.2" class="st4" width="1.1" height="1.6"/>
	</g>
</g>
<g id="Layer_6" class="st0">
	<path class="st5" d="M2.6,25.2c0.1,0.3,0.4,0.4,0.7,0.2C3.5,25.3,3.8,25,4,24.8c0.6-0.5,1.4-0.9,2-1.4c0.6-0.5,1.2-0.8,1.8-1.2
		c1.1-0.7,2.2-1.4,3.4-1.9c1.2-0.5,2.4-0.9,3.7-1.2c0.9-0.2,1.9-0.3,2.9-0.4c0.9-0.1,1.7-0.1,2.6-0.2c0.8-0.1,1.5-0.2,2.3-0.2
		c0.8,0,1.5,0.1,2.3,0.2c0.9,0.1,1.9,0.2,2.8,0.4c1.8,0.4,3.6,0.9,5.3,1.6c1.6,0.6,3.1,1.4,4.6,2.3c1.7,1,3.1,2.4,4.5,3.8
		c0.6,0.5,1.1,1.1,1.6,1.7c0.1,0.1,1.2,1.8,1.1,1.9c0,0-0.1,0.1-0.1,0.1c-0.1,0-0.1,0-0.2-0.1c-1-0.6-2.1-1.1-3.1-1.7
		c-1-0.6-2-1.2-3.2-1.2c-0.2,0-0.5,0-0.7,0.1c-0.2,0.1-0.5,0.7,0.2,0.8c0.6,0.1,1.1,0.2,1.7,0.4c0.4,0.2,0.8,0.5,1.3,0.7
		c0.4,0.2,0.9,0.4,1.3,0.6c1.2,0.5,2.1,1,3.4,1.9c0.3,0.2,0.8,0.3,1.4,0.8c0.6,0.5,1.3-0.1,0.6-1.5c-0.2-0.4-0.3-0.8-0.3-1.2
		c-0.2-1.1-1.1-4.1-1.2-4.7c-0.2-0.9-0.3-1.6-0.5-2.6c-0.1-0.3-0.2-0.9-0.4-1c-0.4-0.3-0.6-0.2-0.9,0c-0.5,0.3-0.2,0.7-0.1,1.1
		c0.1,0.4,0.2,1.2,0.3,1.7c0.1,0.6,0.2,1.2,0.4,1.7c0.1,0.5,0.6,1.8,0.6,2.3c-0.1-0.1-0.6-0.9-0.7-1c-0.8-0.8-1.5-1.6-2.3-2.4
		c-2.5-2.4-5.6-4-8.7-5.4c-0.5-0.2-1-0.4-1.6-0.6c-3.4-0.9-7.1-1.7-10.7-1.5c-1,0.1-2.1,0-3.1,0.1c-2.6,0.3-5.3,0.8-7.7,2
		c-1.4,0.7-2.8,1.6-4.1,2.5c-0.9,0.6-1.8,1.1-2.7,1.8C3.3,24,3,24.2,2.8,24.4C2.5,24.6,2.4,24.9,2.6,25.2z"/>
</g>
<g id="Layer_7" class="st0">
	<g id="Layer_2_1_" class="st2">
		<g>
			<g>
				<path class="st6" d="M25,2.5C12.6,2.5,2.5,12.6,2.5,25S12.6,47.5,25,47.5S47.5,37.4,47.5,25S37.4,2.5,25,2.5z M25.9,43.9v-2.6
					c0-0.5-0.4-0.9-0.9-0.9c-0.5,0-0.9,0.4-0.9,0.9v2.6c-9.7-0.5-17.5-8.3-18-18h2.6c0.5,0,0.9-0.4,0.9-0.9c0-0.5-0.4-0.9-0.9-0.9
					H6.1c0.5-9.7,8.3-17.5,18-18v2.6c0,0.5,0.4,0.9,0.9,0.9c0.5,0,0.9-0.4,0.9-0.9V6.1c9.7,0.5,17.5,8.3,18,18h-2.6
					c-0.5,0-0.9,0.4-0.9,0.9c0,0.5,0.4,0.9,0.9,0.9h2.6C43.4,35.6,35.6,43.4,25.9,43.9z M26.8,24.3v-7.9c0-1-0.8-1.8-1.8-1.8
					s-1.8,0.8-1.8,1.8V25l0,0c0,0.1,0,0.2,0,0.4c0,0.1,0,0.1,0,0.2c0,0.1,0,0.1,0.1,0.2s0.1,0.1,0.1,0.2c0,0,0,0.1,0.1,0.1
					c0.1,0.1,0.1,0.2,0.2,0.3l10.2,10.2c0.4,0.4,0.8,0.5,1.3,0.5s0.9-0.2,1.3-0.5c0.7-0.7,0.7-1.8,0-2.5L26.8,24.3z"/>
			</g>
		</g>
	</g>
</g>
<g id="Layer_8">
	<g>
		<path class="st6" d="M43.1,31.7c-1-0.6-2.4-0.2-2.9,0.8c-2.2,3.9-7.6,8.4-15.2,8.4c-7.7,0-13-4.5-15.2-8.4c-0.6-1-1.9-1.4-2.9-0.8
			c-1,0.6-1.4,1.9-0.8,3c1,1.8,6.7,10.5,19,10.5c12.3,0,18-8.8,19-10.5C44.5,33.7,44.1,32.3,43.1,31.7z"/>
		<path class="st6" d="M47.1,5.8c-4.9-1-10-1.5-16.4,0.1c-1.8,0.5-4,0.9-5.8,0.9c-1.1,0-2.2-0.3-3.2-0.5c-6.3-1.5-12-2.1-18.8-0.8
			c-0.6,0.1-0.1,3.8,0,4.7c0.3,7.4,2.7,10.7,9.1,10.7c7.2,0,10.8-7.1,11.3-9.8c0.3-1.4,1-1.6,1.8-1.6c1.4,0,1.6,1,1.8,1.7
			c2.9,7.5,4.7,9.2,10.9,9.7c9.4,0.8,8.3-6.2,9.6-10.3C47.5,9.9,47.7,6,47.1,5.8z"/>
	</g>
</g>
</svg>
