<?xml version="1.0" encoding="utf-8"?>
<!-- Generator: Adobe Illustrator 19.2.1, SVG Export Plug-In . SVG Version: 6.00 Build 0)  -->
<svg version="1.1" xmlns="http://www.w3.org/2000/svg" xmlns:xlink="http://www.w3.org/1999/xlink" x="0px" y="0px"
	 viewBox="0 0 50 50" style="enable-background:new 0 0 50 50;" xml:space="preserve">
<style type="text/css">
	.st0{display:none;}
	.st1{display:inline;fill:#A0A0A0;}
	.st2{display:inline;}
	.st3{fill:#FFFFFF;}
</style>
<g id="Layer_2" class="st0">
	<rect class="st1" width="50" height="50"/>
</g>
<g id="notification" class="st0">
	<g class="st2">
		<g>
			<path class="st3" d="M4.7,40.4c0.2,0.6,0.8,1,1.5,1h11.7c0.5,3.5,3.5,6.1,7.1,6.1s6.6-2.7,7.1-6.1h11.8l0,0c0.1,0,0.2,0,0.2,0
				c0.6-0.1,1.1-0.5,1.3-1c0.2-0.6,0.1-1.3-0.4-1.7c0,0-0.1-0.1-0.1-0.1c-0.2-0.2-0.8-0.9-1.4-2.4C42.8,34.5,42,31.5,42,27
				c0-9-3.4-13.7-6.2-16.1c-1.9-1.6-3.8-2.4-5-2.7c-0.1-1.1-0.3-2.6-1.3-3.8c-0.7-0.8-2-1.8-4.4-1.8c-2.3,0-3.6,1-4.3,1.8
				c-1,1.2-1.3,2.8-1.4,3.9c-1.3,0.4-3.1,1.2-5,2.7C9.1,15.1,8,22,8,26.9c0,4.4-0.8,7.3-1.5,9C5.8,37.8,5,38.6,5,38.6l0,0
				C4.5,39,4.4,39.7,4.7,40.4z M25,44.3c-1.8,0-3.3-1.2-3.8-2.9h7.6C28.3,43,26.8,44.3,25,44.3z M11.3,26.9
				c0-14.5,9.5-15.9,9.9-15.9c0.4-0.1,0.8-0.3,1.1-0.6c0.3-0.3,0.4-0.8,0.3-1.2c-0.1-0.5-0.1-2,0.6-2.9c0.1-0.2,0.6-0.7,1.9-0.7
				s1.7,0.5,1.9,0.7c0.7,0.8,0.6,2.3,0.6,2.7c-0.1,0.4,0,0.9,0.3,1.2c0.3,0.3,0.6,0.6,1.1,0.6c0,0,2.4,0.3,4.8,2.4
				c3.4,2.8,5.1,7.4,5.1,13.7c0,5.5,1,9,2.1,11.2H9.1C10.1,35.9,11.3,32.3,11.3,26.9z"/>
		</g>
	</g>
</g>
<g id="App_Icon">
	<g>
		<path class="st3" d="M33.7,2.5H16.3c-3.1,0-5.6,2.6-5.6,5.8v33.5c0,3.2,2.5,5.8,5.6,5.8h17.4c3.1,0,5.6-2.6,5.6-5.8V8.3
			C39.3,5.1,36.8,2.5,33.7,2.5z M36.7,41.7c0,1.7-1.3,3.1-3,3.1H16.3c-1.7,0-3-1.4-3-3.1V8.3c0-1.7,1.3-3.1,3-3.1h17.4
			c1.7,0,3,1.4,3,3.1V41.7z"/>
		<path class="st3" d="M25,37.3c1.3,0,2.4,1.1,2.4,2.5c0,1.4-1.1,2.5-2.4,2.5c-1.3,0-2.4-1.1-2.4-2.5C22.6,38.4,23.7,37.3,25,37.3z"
			/>
	</g>
</g>
<g id="Cart" class="st0">
	<g class="st2">
		<path class="st3" d="M23.2,37.5c1.9,0,3.4,1.6,3.4,3.5c0,1.9-1.5,3.5-3.4,3.5c-1.9,0-3.4-1.6-3.4-3.5C19.8,39,21.3,37.5,23.2,37.5
			z"/>
		<path class="st3" d="M37.6,37.5c1.9,0,3.4,1.6,3.4,3.5c0,1.9-1.5,3.5-3.4,3.5c-1.9,0-3.4-1.6-3.4-3.5C34.1,39,35.7,37.5,37.6,37.5
			z"/>
		<path class="st3" d="M4.2,9.2c3.2,0,6.3,0,9.5,0c-0.6-0.5-1.2-0.9-1.7-1.4c2.4,8.5,4.8,17,7.1,25.4c0.2,0.8,0.9,1.4,1.7,1.4
			c6.4,0,12.7,0,19.1,0c0.8,0,1.5-0.6,1.7-1.4c1.9-5.7,3.8-11.5,5.7-17.2c0.4-1.1-0.6-2.3-1.7-2.3c-9.9,0-19.8,0-29.7,0
			c-2.3,0-2.3,3.7,0,3.7c9.9,0,19.8,0,29.7,0c-0.6-0.8-1.2-1.6-1.7-2.3c-1.9,5.7-3.8,11.5-5.7,17.2c0.6-0.5,1.2-0.9,1.7-1.4
			c-6.4,0-12.7,0-19.1,0c0.6,0.5,1.2,0.9,1.7,1.4c-2.4-8.5-4.8-17-7.2-25.4c-0.2-0.8-0.9-1.4-1.7-1.4c-3.2,0-6.3,0-9.5,0
			C1.9,5.5,1.9,9.2,4.2,9.2L4.2,9.2z"/>
	</g>
</g>
</svg>
