<?xml version="1.0" encoding="utf-8"?>
<!-- Generator: Adobe Illustrator 19.2.1, SVG Export Plug-In . SVG Version: 6.00 Build 0)  -->
<svg version="1.1" id="Layer_1" xmlns="http://www.w3.org/2000/svg" xmlns:xlink="http://www.w3.org/1999/xlink" x="0px" y="0px"
	 viewBox="0 0 50 50" style="enable-background:new 0 0 50 50;" xml:space="preserve">
<style type="text/css">
	.st0{fill:#D0D0D0;}
</style>
<g>
	<path class="st0" d="M47.5,12.2c0-1.8-1.2-3.1-3.5-3.1c-3.1,0-7.4,1.8-10.4,4.8c-3.4,3.4-5.4,8.6-5.4,16.1v1.1c0,6,3.1,9.7,8,9.7
		c4.5,0,7.5-3.2,7.5-7.4v-0.9c0-4-3.1-6.6-6.3-7.5c-0.2-4.9,2.4-8.3,7.5-9.8C46.4,14.8,47.5,13.8,47.5,12.2z M21.8,12.2
		c0-1.8-1.1-3.1-3.4-3.1c-3.2,0-7.5,1.8-10.4,4.8C4.5,17.3,2.5,22.5,2.5,30v1.1c0,6,3.1,9.7,8,9.7c4.5,0,7.5-3.2,7.5-7.4v-0.9
		c0-4-3.1-6.6-6.3-7.5c-0.2-4.9,2.4-8.3,7.5-9.8C20.7,14.8,21.8,13.8,21.8,12.2z"/>
</g>
</svg>
