<?xml version="1.0" encoding="utf-8"?>
<!-- Generator: Adobe Illustrator 19.2.1, SVG Export Plug-In . SVG Version: 6.00 Build 0)  -->
<svg version="1.1" id="Layer_1" xmlns="http://www.w3.org/2000/svg" xmlns:xlink="http://www.w3.org/1999/xlink" x="0px" y="0px"
	 viewBox="0 0 50 50" style="enable-background:new 0 0 50 50;" xml:space="preserve">
<style type="text/css">
	.st0{fill:#3B4247;}
</style>
<g>
	<path class="st0" d="M42.4,2.5H7.6c-2.3,0-4.1,1.9-4.1,4.2v25.7c0,1.4,0.7,2.8,2,3.6l17.3,10.9c1.3,0.8,3,0.8,4.4,0l17.6-10.9
		c1.2-0.8,2-2.1,2-3.6V6.7C46.6,4.4,44.7,2.5,42.4,2.5z M35.8,20.2L24.2,32c-1,1-2.7,1-3.7,0l-5.8-5.8c-0.5-0.5-0.8-1.2-0.8-1.9
		c0-0.7,0.3-1.4,0.8-1.9v0c0.5-0.5,1.2-0.8,1.9-0.8c0.7,0,1.4,0.3,1.9,0.8l3.4,3.5c0.1,0.1,0.3,0.2,0.5,0.2c0.2,0,0.3-0.1,0.5-0.2
		l9.3-9.4c0.5-0.5,1.2-0.8,1.9-0.8c0.7,0,1.4,0.3,1.9,0.8l0,0C36.9,17.5,36.9,19.2,35.8,20.2z"/>
</g>
</svg>
