<?xml version="1.0" encoding="utf-8"?>
<!-- Generator: Adobe Illustrator 19.2.1, SVG Export Plug-In . SVG Version: 6.00 Build 0)  -->
<svg version="1.1" id="Layer_1" xmlns="http://www.w3.org/2000/svg" xmlns:xlink="http://www.w3.org/1999/xlink" x="0px" y="0px"
	 viewBox="0 0 50 50" style="enable-background:new 0 0 50 50;" xml:space="preserve">
<style type="text/css">
	.st0{fill:#3B4247;}
</style>
<g>
	<path class="st0" d="M40.3,6.7h-4.5V4.3c0-1-0.8-1.8-1.8-1.8c-1,0-1.8,0.8-1.8,1.8v2.4h-2.4V4.3c0-1-0.8-1.8-1.8-1.8
		c-1,0-1.8,0.8-1.8,1.8v2.4h-2.4V4.3c0-1-0.8-1.8-1.8-1.8c-1,0-1.8,0.8-1.8,1.8v2.4h-2.4V4.3c0-1-0.8-1.8-1.8-1.8
		c-1,0-1.8,0.8-1.8,1.8v2.4H9.7c-1,0-1.8,0.8-1.8,1.8v37.2c0,1,0.8,1.8,1.8,1.8h30.5c1,0,1.8-0.8,1.8-1.8V8.5
		C42.1,7.5,41.3,6.7,40.3,6.7z M25,39.4h-9c-1,0-1.8-0.8-1.8-1.8c0-1,0.8-1.8,1.8-1.8h9c1,0,1.8,0.8,1.8,1.8
		C26.8,38.6,26,39.4,25,39.4z M34,33.4H16c-1,0-1.8-0.8-1.8-1.8c0-1,0.8-1.8,1.8-1.8h18c1,0,1.8,0.8,1.8,1.8
		C35.8,32.6,35,33.4,34,33.4z M34,27.4H16c-1,0-1.8-0.8-1.8-1.8c0-1,0.8-1.8,1.8-1.8h18c1,0,1.8,0.8,1.8,1.8
		C35.8,26.6,35,27.4,34,27.4z M34,21.4H16c-1,0-1.8-0.8-1.8-1.8c0-1,0.8-1.8,1.8-1.8h18c1,0,1.8,0.8,1.8,1.8
		C35.8,20.6,35,21.4,34,21.4z"/>
</g>
</svg>
