<?xml version="1.0" encoding="utf-8"?>
<!-- Generator: Adobe Illustrator 19.2.0, SVG Export Plug-In . SVG Version: 6.00 Build 0)  -->
<svg version="1.1" xmlns="http://www.w3.org/2000/svg" xmlns:xlink="http://www.w3.org/1999/xlink" x="0px" y="0px"
	 viewBox="0 0 50 50" style="enable-background:new 0 0 50 50;" xml:space="preserve">
<style type="text/css">
	.st0{display:none;}
	.st1{display:inline;}
	.st2{fill:#4B5B5C;}
	.st3{display:inline;fill:#4B5B5C;}
</style>
<g id="Layer_1" class="st0">
	<g class="st1">
		<path class="st2" d="M8.3,20.8c-0.3,0-0.6-0.1-0.8-0.4l-3.9-4.5c-0.2-0.2-0.3-0.5-0.3-0.8s0.2-0.6,0.4-0.7l1.6-1.4
			c0.5-0.4,1.1-0.3,1.5,0.1l3.9,4.5c0.4,0.5,0.3,1.1-0.1,1.5L9,20.5C8.8,20.7,8.6,20.8,8.3,20.8z M6.1,13.8l-1.6,1.4l3.9,4.5l2-1.8
			L10,18.3L6.1,13.8z"/>
		<path class="st2" d="M11,19l-5.2-5.7l1.7,0.6c0,0,1.4,0.4,1.8-0.4c0.3-0.6,0.5-2.5,0.6-3.6l0-0.2L15.2,5c0.1-0.1,0.3-0.3,0.5-0.2
			c0.3,0,0.4,0.2,0.5,0.3l0.3,0.4c1.4-0.8,6.2-3.1,10.1,1.4l1.2,1.4l-1.7-0.5c0,0-3.6-1-6.5,1.2l0.7,0.8c0.2,0.2,0.5,0.6,0.5,1
			c0,0.2-0.1,0.4-0.3,0.5l-5.3,4.6l-0.2,0c-1.2-0.1-2.7-0.2-3.2-0.1c-1,0.4-0.7,1.8-0.7,1.8V19z M8.5,15.1l1,1.2
			c0.2-0.6,0.7-1.3,1.5-1.6c0.8-0.3,3-0.1,3.8,0l4.7-4.1c0-0.1-0.1-0.1-0.1-0.1L18,8.8l0.4-0.4c2.1-1.8,4.6-2.1,6.2-2
			c-1.4-1-3-1.4-4.8-1.1c-1.8,0.3-3.1,1.2-3.1,1.2l-0.4,0.3l-0.7-0.9l-4.7,4.1c-0.1,0.8-0.3,3-0.7,3.8C9.8,14.7,9.1,15,8.5,15.1z"/>
		<path class="st2" d="M19.5,18.6l-4.2-4.9l2.9-2.5l4.2,4.9L19.5,18.6z M16.8,13.8l2.8,3.3l1.2-1.1L18,12.7L16.8,13.8z"/>
		<path class="st2" d="M40.5,46.2L18.8,21c-0.5-0.6-0.6-1.3-0.4-2c0.2-0.6,0.6-1.3,1.1-1.7l2-1.8c0.6-0.5,1.2-0.7,1.8-0.7
			c0.6,0,1.2,0.4,1.7,0.9l21.7,25.2L40.5,46.2z M23.1,15.9c-0.3,0-0.6,0.1-0.9,0.4l-2,1.8c-0.4,0.3-0.7,0.8-0.8,1.2
			c-0.1,0.4,0,0.8,0.2,1.1l21,24.4l4.5-3.9l-21-24.4C23.8,16.1,23.5,15.9,23.1,15.9C23.2,15.9,23.1,15.9,23.1,15.9z"/>
	</g>
	<path class="st3" d="M24.6,30L20,25.1l5.8-5.1l4.2,4.7L24.6,30z M21.5,25.2l3.1,3.3l3.9-3.9l-2.8-3.1L21.5,25.2z"/>
	<g class="st1">
		<path class="st2" d="M11.6,46.2l-7.8-8.3l9.6-8.9l0.8,0.9l-0.5,0.4l4.9,4.3l0.3,0.3v-0.1l1.1,1.1l0.6,1.1L11.6,46.2z M5.3,37.9
			l6.3,6.7l7.6-7.7l-1.4-1.5L12.9,31L5.3,37.9z"/>
		<path class="st2" d="M20,37.3l-2.1-1.9l-5.2-5.6l9.1-8.6l5.2,5.8v2.7l-1.6-0.3l0,2.5H23v2.8l-3-0.5V37.3z M14.2,29.9l4.5,4.8
			l0.3,0.2V33l2,0.5V31h3.3l0-2.6l1.7,0.3v-1.2l-4.2-4.7L14.2,29.9z"/>
		<path class="st2" d="M32,23.8l-5.9-6.5L40.3,3.8l5.9,6.1L43.3,10l-0.4,3h-2.4l-0.1,2L38,14.7v2l-2,0.6v2.2l-1.6,0.3L34.2,23h-2
			L32,23.8z M31.7,22h1.5l0.2-3.2l1.6-0.3v-2l2-0.6v-2.3l2.3-0.2l0-2.4H42l0.4-2.5l1.2,0.1l-3.3-3.3L27.6,17.4L31.7,22z"/>
	</g>
</g>
<g id="Layer_2" class="st0">
	<g class="st1">
		<g>
			<path class="st2" d="M13,15.6c-0.4,0-1-0.3-1-0.7V4.3c0-0.1,0-0.1,0-0.2c0,0,0.1-1.1,0-1.1h-0.5c0,0,0,0,0,0
				C9.7,3,9.3,3.7,9.2,3.8l0,10.8c0,0.4-0.2,0.8-0.6,0.8c-0.4,0-0.6-0.2-0.6-0.5V4.4c0-0.4,0.1-1.6,1.5-1.9C10.2,2.4,10.9,2,11.4,2
				H12c0.7,0,1.3,0.4,1.6,0.7C13.8,3,14,3.7,14,4.3v10.6C14,15.2,13.4,15.6,13,15.6z"/>
			<path class="st2" d="M25.5,15.6c-0.4,0-0.5-0.3-0.5-0.7V4.3c0-0.1,0-0.1,0-0.2c-1,0-0.3-1.1-0.4-1.1h-0.5c0,0,0,0,0,0
				c-1.7,0-2.2,0.7-2.3,0.8l0,10.8c0,0.4-0.5,0.8-0.9,0.8c-0.4,0-0.9-0.2-0.9-0.5V4.4c0-0.4,0.4-1.6,1.8-1.9C22.5,2.4,23.5,2,24.1,2
				h0.5c0.7,0,0.9,0.4,1.3,0.7C26.2,3,26,3.7,26,4.3v10.6C26,15.2,25.9,15.6,25.5,15.6z"/>
		</g>
		<path class="st2" d="M29,19h-9c-0.4,0-0.7-0.1-0.7-0.5S19.6,18,20,18h9c0.4,0,0.7,0.1,0.7,0.5S29.4,19,29,19z"/>
		<path class="st2" d="M29,22h-9c-0.4,0-0.7-0.1-0.7-0.5S19.6,21,20,21h9c0.4,0,0.7,0.1,0.7,0.5S29.4,22,29,22z"/>
		<path class="st2" d="M27.7,26h-8.1c-0.4,0-0.7-0.1-0.7-0.5s0.3-0.5,0.7-0.5h8.1c0.4,0,0.7,0.1,0.7,0.5S28,26,27.7,26z"/>
		<path class="st2" d="M24.9,29h-5.9c-0.4,0-0.7-0.1-0.7-0.5s0.3-0.5,0.7-0.5h5.9c0.4,0,0.7,0.1,0.7,0.5S25.3,29,24.9,29z"/>
		<path class="st2" d="M20,39h-7v-7C8,30.4,3,25.8,3,20v-5h27.3l-0.7,5.6c0,5.5-3.6,9.9-9.6,11.5V39z M14,38h5v-6.9l0.6-0.1
			c5.4-1.3,8.9-5.4,8.9-10.4l0-0.2l0.4-4.3H5v4c0,5.3,4.4,9.6,8.3,10.8L14,31V38z"/>
		<path class="st2" d="M21.9,47.7c-2,0-3.6-0.6-4.6-1.6C15.9,44.7,16,43,16,42.9v-3.7c0-0.4,0.1-0.7,0.5-0.7s0.5,0.3,0.5,0.7v3.7
			c0,0,0.1,1.3,1.1,2.2c0.8,0.8,2.1,1.2,3.7,1.2c1.5,0,2.6-0.4,3.3-1.2c1-1,0.9-2.3,0.9-2.3v-7.7c0-2.6,2.5-7.5,10.4-7.5
			c9.5,0,10.1,7.4,10.1,7.5l0,3.6c0,0.4-0.4,0.7-0.8,0.7c-0.4,0-0.8-0.3-0.8-0.7v-3.5c0-0.2-0.7-6.1-8.9-6.1c-8.6,0-9.1,5.9-9.1,6.2
			v7.6c0,0.1,0.3,1.9-1,3.2C24.9,47.2,23.8,47.7,21.9,47.7z"/>
	</g>
</g>
<g id="Layer_3">
	<path class="st2" d="M37,47H14V24.6l-1,1.2l-5.3-5.4l0.1-0.3c0.1-0.3,2.7-8.4,6.8-9.5L21.2,9l0.1,0.6c0,0.2,0.9,4.4,4.7,4.4
		c0,0,0,0,0.1,0c0.2,0,3.8,0,4.5-4.4l0.1-0.6l0.5,0c0.6,0.1,6.3,0.9,7.9,1.7c0.4,0.2,2.6,1.5,5.3,9l0.1,0.3l-6,5.3L37,24.3V47z
		 M15,46h21V22.2l2.4,1.9l4.8-4.3c-2.6-7.1-4.6-8.1-4.6-8.1l0,0c-1-0.6-5.1-1.1-7.1-1.4C30.7,14.1,27.6,15,26,15c0,0-0.1,0-0.1,0
		c-3.7,0-5.1-3.4-5.5-4.7l-5.6,1.2c-1.4,0.4-2.9,2-4.3,4.7c-0.8,1.6-1.4,3.2-1.6,3.8l4.1,4.2l2-2.5V46z"/>
	<rect x="11.7" y="15.8" transform="matrix(0.7354 -0.6777 0.6777 0.7354 -10.1239 13.4947)" class="st2" width="1" height="7.9"/>
	<rect x="35.2" y="19.3" transform="matrix(0.6863 -0.7273 0.7273 0.6863 -1.9956 35.0472)" class="st2" width="8.9" height="1"/>
	<polygon class="st2" points="21.3,10.9 20.8,10 26.2,7.6 31,9.9 30.6,10.8 26.2,8.7 	"/>
	<path class="st2" d="M26,8h-1V6.1l0.2-0.2c0.8-0.5,1.2-1.1,1.3-1.6c0.1-0.3-0.1-0.6-0.1-0.6c-0.3-0.3-0.6-0.4-0.9-0.4
		c-0.5,0.1-0.9,0.9-1,1.2l-1-0.3c0.1-0.2,0.6-1.6,1.7-1.9C26,2.2,26.6,2.4,27.2,3l0.1,0.1c0,0.1,0.4,0.6,0.3,1.4
		C27.4,5.3,27,6,26,6.6V8z"/>
</g>
</svg>
