<?xml version="1.0" encoding="utf-8"?>
<!-- Generator: Adobe Illustrator 19.2.1, SVG Export Plug-In . SVG Version: 6.00 Build 0)  -->
<svg version="1.1" id="Layer_1" xmlns="http://www.w3.org/2000/svg" xmlns:xlink="http://www.w3.org/1999/xlink" x="0px" y="0px"
	 viewBox="0 0 50 50" style="enable-background:new 0 0 50 50;" xml:space="preserve">
<style type="text/css">
	.st0{fill:#3B4247;}
</style>
<g>
	<g>
		<path class="st0" d="M47,28.5l-10.3,0c0.1-1,0-2.2,0-4c0-3.6-1.2-4.6-3.7-8.2c-1.7-2.4-1.5-4-3.1-4.7c-0.9-0.4-1.7-0.5-2.3-0.6
			c-0.1,0-0.3,0-0.4,0c-0.3,0-0.4,0-0.5,0c-0.1,0-0.3,0-0.4,0v0l-0.6,0l-0.7,0l-0.4,0l0,0c-0.1,0-0.2,0-0.3,0
			c-5.2,0-6.2-0.2-10.2-0.5c-4.4-0.2-7.5-1.5-7.5-1.5S2.1,18,3.9,18.4c1.8,0.5,3.7,1.9,3.7,1.9c4.5,4,13.4,5.8,11.8,5.8
			c-1.6,0-2.1,0.2-2.4,1.8c-0.3,1.6,3.5,1.7,3.5,1.7s-0.3,0.5,0,2c0.1,0.4,0.6,0.6,1.3,0.6c1.6,0,4.3-0.8,4.3-0.8s-1.2,1.8,0.7,2.4
			c0.3,0.1,0.5,0.1,0.7,0.1c1,0,1.5-0.9,1.8-1.3c0.1-0.1,0.2-0.2,0.2-0.2c0,0,0,0,0,0c0.1,0,0.2,0.1,0.3,0.1
			c0.2,0.1,0.4,0.1,0.6,0.2c0.3,0.1,0.6,0.3,0.6,0.3c0.9,0.4,1.5,0.6,2,0.6c1.7,0,1.6-1.8,1.6-1.8s0.2-0.9-0.5-2.2
			c-0.1-0.2-0.2-0.4-0.4-0.6c-0.1-0.2-0.3-0.4-0.4-0.6c-0.6-0.6-1.4-1.3-2.5-2c-4.4-2.7-4.8-4-4.8-4c0.1-1.2,0.9-1.5,1.6-1.5
			c0.3,0,0.5,0,0.7,0.1c0.1,0.1,0.3,0.2,0.4,0.2c0.1,0.1,0.3,0.2,0.4,0.3c1.3,0.9,2.6,2.1,2.7,2.2l0.1,0.3c0.2,0.5,0.3,1,0.3,1.5
			l0.2,1.3c0.8,0.6,1.3,1.2,1.7,1.8c0.1,0.2,0.3,0.4,0.4,0.6c0.1,0.2,0.2,0.4,0.3,0.6l1.5,0l10.5,0c0.2,0,0.4,0.2,0.4,0.4l0,5
			l-16.9,0l0-1.4c-0.2-0.1-0.4-0.2-0.6-0.2c-0.1,0-0.1,0-0.2-0.1c0,0,0,0,0,0c-0.1,0.1-0.2,0.3-0.4,0.4l0,5.6c0,0.8,0.7,1.5,1.5,1.5
			h0l16.2,0c0.8,0,1.5-0.7,1.5-1.5l0-9.4C48.5,29.2,47.8,28.5,47,28.5z M47.4,38.1l0,1.4c0,0.2-0.2,0.4-0.4,0.4l-16.2,0
			c-0.2,0-0.4-0.2-0.4-0.4l0-1.4L47.4,38.1z"/>
	</g>
</g>
</svg>
